<?xml version="1.0" encoding="utf-8" standalone="no"?>
<!DOCTYPE svg PUBLIC "-//W3C//DTD SVG 1.1//EN"
  "http://www.w3.org/Graphics/SVG/1.1/DTD/svg11.dtd">
<svg xmlns:xlink="http://www.w3.org/1999/xlink" width="864pt" height="576pt" viewBox="0 0 864 576" xmlns="http://www.w3.org/2000/svg" version="1.1">
 <metadata>
  <rdf:RDF xmlns:dc="http://purl.org/dc/elements/1.1/" xmlns:cc="http://creativecommons.org/ns#" xmlns:rdf="http://www.w3.org/1999/02/22-rdf-syntax-ns#">
   <cc:Work>
    <dc:type rdf:resource="http://purl.org/dc/dcmitype/StillImage"/>
    <dc:date>2025-07-07T20:33:41.014493</dc:date>
    <dc:format>image/svg+xml</dc:format>
    <dc:creator>
     <cc:Agent>
      <dc:title>Matplotlib v3.10.0, https://matplotlib.org/</dc:title>
     </cc:Agent>
    </dc:creator>
   </cc:Work>
  </rdf:RDF>
 </metadata>
 <defs>
  <style type="text/css">*{stroke-linejoin: round; stroke-linecap: butt}</style>
 </defs>
 <g id="figure_1">
  <g id="patch_1">
   <path d="M 0 576 
L 864 576 
L 864 0 
L 0 0 
L 0 576 
z
" style="fill: none"/>
  </g>
  <g id="axes_1">
   <g id="patch_2">
    <path d="M 108 512.64 
L 777.6 512.64 
L 777.6 69.12 
L 108 69.12 
L 108 512.64 
z
" style="fill: none"/>
   </g>
   <g id="matplotlib.axis_1">
    <g id="xtick_1">
     <g id="line2d_1">
      <path d="M 149.85 512.64 
L 149.85 69.12 
" clip-path="url(#p1b2c894ed3)" style="fill: none; stroke: #cccccc; stroke-width: 0.8; stroke-linecap: round"/>
     </g>
     <g id="line2d_2">
      <defs>
       <path id="md90c7118d6" d="M 0 0 
L 0 3.5 
" style="stroke: #262626; stroke-width: 0.8"/>
      </defs>
      <g>
       <use xlink:href="#md90c7118d6" x="149.85" y="512.64" style="fill: #262626; stroke: #262626; stroke-width: 0.8"/>
      </g>
     </g>
     <g id="text_1">
      <!-- R1 -->
      <g style="fill: #262626" transform="translate(137.870156 533.317188) scale(0.18 -0.18)">
       <defs>
        <path id="DejaVuSans-52" d="M 2841 2188 
Q 3044 2119 3236 1894 
Q 3428 1669 3622 1275 
L 4263 0 
L 3584 0 
L 2988 1197 
Q 2756 1666 2539 1819 
Q 2322 1972 1947 1972 
L 1259 1972 
L 1259 0 
L 628 0 
L 628 4666 
L 2053 4666 
Q 2853 4666 3247 4331 
Q 3641 3997 3641 3322 
Q 3641 2881 3436 2590 
Q 3231 2300 2841 2188 
z
M 1259 4147 
L 1259 2491 
L 2053 2491 
Q 2509 2491 2742 2702 
Q 2975 2913 2975 3322 
Q 2975 3731 2742 3939 
Q 2509 4147 2053 4147 
L 1259 4147 
z
" transform="scale(0.015625)"/>
        <path id="DejaVuSans-31" d="M 794 531 
L 1825 531 
L 1825 4091 
L 703 3866 
L 703 4441 
L 1819 4666 
L 2450 4666 
L 2450 531 
L 3481 531 
L 3481 0 
L 794 0 
L 794 531 
z
" transform="scale(0.015625)"/>
       </defs>
       <use xlink:href="#DejaVuSans-52"/>
       <use xlink:href="#DejaVuSans-31" transform="translate(69.482422 0)"/>
      </g>
     </g>
    </g>
    <g id="xtick_2">
     <g id="line2d_3">
      <path d="M 233.55 512.64 
L 233.55 69.12 
" clip-path="url(#p1b2c894ed3)" style="fill: none; stroke: #cccccc; stroke-width: 0.8; stroke-linecap: round"/>
     </g>
     <g id="line2d_4">
      <g>
       <use xlink:href="#md90c7118d6" x="233.55" y="512.64" style="fill: #262626; stroke: #262626; stroke-width: 0.8"/>
      </g>
     </g>
     <g id="text_2">
      <!-- R2 -->
      <g style="fill: #262626" transform="translate(221.570156 533.317188) scale(0.18 -0.18)">
       <defs>
        <path id="DejaVuSans-32" d="M 1228 531 
L 3431 531 
L 3431 0 
L 469 0 
L 469 531 
Q 828 903 1448 1529 
Q 2069 2156 2228 2338 
Q 2531 2678 2651 2914 
Q 2772 3150 2772 3378 
Q 2772 3750 2511 3984 
Q 2250 4219 1831 4219 
Q 1534 4219 1204 4116 
Q 875 4013 500 3803 
L 500 4441 
Q 881 4594 1212 4672 
Q 1544 4750 1819 4750 
Q 2544 4750 2975 4387 
Q 3406 4025 3406 3419 
Q 3406 3131 3298 2873 
Q 3191 2616 2906 2266 
Q 2828 2175 2409 1742 
Q 1991 1309 1228 531 
z
" transform="scale(0.015625)"/>
       </defs>
       <use xlink:href="#DejaVuSans-52"/>
       <use xlink:href="#DejaVuSans-32" transform="translate(69.482422 0)"/>
      </g>
     </g>
    </g>
    <g id="xtick_3">
     <g id="line2d_5">
      <path d="M 317.25 512.64 
L 317.25 69.12 
" clip-path="url(#p1b2c894ed3)" style="fill: none; stroke: #cccccc; stroke-width: 0.8; stroke-linecap: round"/>
     </g>
     <g id="line2d_6">
      <g>
       <use xlink:href="#md90c7118d6" x="317.25" y="512.64" style="fill: #262626; stroke: #262626; stroke-width: 0.8"/>
      </g>
     </g>
     <g id="text_3">
      <!-- R3 -->
      <g style="fill: #262626" transform="translate(305.270156 533.317188) scale(0.18 -0.18)">
       <defs>
        <path id="DejaVuSans-33" d="M 2597 2516 
Q 3050 2419 3304 2112 
Q 3559 1806 3559 1356 
Q 3559 666 3084 287 
Q 2609 -91 1734 -91 
Q 1441 -91 1130 -33 
Q 819 25 488 141 
L 488 750 
Q 750 597 1062 519 
Q 1375 441 1716 441 
Q 2309 441 2620 675 
Q 2931 909 2931 1356 
Q 2931 1769 2642 2001 
Q 2353 2234 1838 2234 
L 1294 2234 
L 1294 2753 
L 1863 2753 
Q 2328 2753 2575 2939 
Q 2822 3125 2822 3475 
Q 2822 3834 2567 4026 
Q 2313 4219 1838 4219 
Q 1578 4219 1281 4162 
Q 984 4106 628 3988 
L 628 4550 
Q 988 4650 1302 4700 
Q 1616 4750 1894 4750 
Q 2613 4750 3031 4423 
Q 3450 4097 3450 3541 
Q 3450 3153 3228 2886 
Q 3006 2619 2597 2516 
z
" transform="scale(0.015625)"/>
       </defs>
       <use xlink:href="#DejaVuSans-52"/>
       <use xlink:href="#DejaVuSans-33" transform="translate(69.482422 0)"/>
      </g>
     </g>
    </g>
    <g id="xtick_4">
     <g id="line2d_7">
      <path d="M 400.95 512.64 
L 400.95 69.12 
" clip-path="url(#p1b2c894ed3)" style="fill: none; stroke: #cccccc; stroke-width: 0.8; stroke-linecap: round"/>
     </g>
     <g id="line2d_8">
      <g>
       <use xlink:href="#md90c7118d6" x="400.95" y="512.64" style="fill: #262626; stroke: #262626; stroke-width: 0.8"/>
      </g>
     </g>
     <g id="text_4">
      <!-- R4 -->
      <g style="fill: #262626" transform="translate(388.970156 533.317188) scale(0.18 -0.18)">
       <defs>
        <path id="DejaVuSans-34" d="M 2419 4116 
L 825 1625 
L 2419 1625 
L 2419 4116 
z
M 2253 4666 
L 3047 4666 
L 3047 1625 
L 3713 1625 
L 3713 1100 
L 3047 1100 
L 3047 0 
L 2419 0 
L 2419 1100 
L 313 1100 
L 313 1709 
L 2253 4666 
z
" transform="scale(0.015625)"/>
       </defs>
       <use xlink:href="#DejaVuSans-52"/>
       <use xlink:href="#DejaVuSans-34" transform="translate(69.482422 0)"/>
      </g>
     </g>
    </g>
    <g id="xtick_5">
     <g id="line2d_9">
      <path d="M 484.65 512.64 
L 484.65 69.12 
" clip-path="url(#p1b2c894ed3)" style="fill: none; stroke: #cccccc; stroke-width: 0.8; stroke-linecap: round"/>
     </g>
     <g id="line2d_10">
      <g>
       <use xlink:href="#md90c7118d6" x="484.65" y="512.64" style="fill: #262626; stroke: #262626; stroke-width: 0.8"/>
      </g>
     </g>
     <g id="text_5">
      <!-- R5 -->
      <g style="fill: #262626" transform="translate(472.670156 533.317188) scale(0.18 -0.18)">
       <defs>
        <path id="DejaVuSans-35" d="M 691 4666 
L 3169 4666 
L 3169 4134 
L 1269 4134 
L 1269 2991 
Q 1406 3038 1543 3061 
Q 1681 3084 1819 3084 
Q 2600 3084 3056 2656 
Q 3513 2228 3513 1497 
Q 3513 744 3044 326 
Q 2575 -91 1722 -91 
Q 1428 -91 1123 -41 
Q 819 9 494 109 
L 494 744 
Q 775 591 1075 516 
Q 1375 441 1709 441 
Q 2250 441 2565 725 
Q 2881 1009 2881 1497 
Q 2881 1984 2565 2268 
Q 2250 2553 1709 2553 
Q 1456 2553 1204 2497 
Q 953 2441 691 2322 
L 691 4666 
z
" transform="scale(0.015625)"/>
       </defs>
       <use xlink:href="#DejaVuSans-52"/>
       <use xlink:href="#DejaVuSans-35" transform="translate(69.482422 0)"/>
      </g>
     </g>
    </g>
    <g id="xtick_6">
     <g id="line2d_11">
      <path d="M 568.35 512.64 
L 568.35 69.12 
" clip-path="url(#p1b2c894ed3)" style="fill: none; stroke: #cccccc; stroke-width: 0.8; stroke-linecap: round"/>
     </g>
     <g id="line2d_12">
      <g>
       <use xlink:href="#md90c7118d6" x="568.35" y="512.64" style="fill: #262626; stroke: #262626; stroke-width: 0.8"/>
      </g>
     </g>
     <g id="text_6">
      <!-- R6 -->
      <g style="fill: #262626" transform="translate(556.370156 533.317188) scale(0.18 -0.18)">
       <defs>
        <path id="DejaVuSans-36" d="M 2113 2584 
Q 1688 2584 1439 2293 
Q 1191 2003 1191 1497 
Q 1191 994 1439 701 
Q 1688 409 2113 409 
Q 2538 409 2786 701 
Q 3034 994 3034 1497 
Q 3034 2003 2786 2293 
Q 2538 2584 2113 2584 
z
M 3366 4563 
L 3366 3988 
Q 3128 4100 2886 4159 
Q 2644 4219 2406 4219 
Q 1781 4219 1451 3797 
Q 1122 3375 1075 2522 
Q 1259 2794 1537 2939 
Q 1816 3084 2150 3084 
Q 2853 3084 3261 2657 
Q 3669 2231 3669 1497 
Q 3669 778 3244 343 
Q 2819 -91 2113 -91 
Q 1303 -91 875 529 
Q 447 1150 447 2328 
Q 447 3434 972 4092 
Q 1497 4750 2381 4750 
Q 2619 4750 2861 4703 
Q 3103 4656 3366 4563 
z
" transform="scale(0.015625)"/>
       </defs>
       <use xlink:href="#DejaVuSans-52"/>
       <use xlink:href="#DejaVuSans-36" transform="translate(69.482422 0)"/>
      </g>
     </g>
    </g>
    <g id="xtick_7">
     <g id="line2d_13">
      <path d="M 652.05 512.64 
L 652.05 69.12 
" clip-path="url(#p1b2c894ed3)" style="fill: none; stroke: #cccccc; stroke-width: 0.8; stroke-linecap: round"/>
     </g>
     <g id="line2d_14">
      <g>
       <use xlink:href="#md90c7118d6" x="652.05" y="512.64" style="fill: #262626; stroke: #262626; stroke-width: 0.8"/>
      </g>
     </g>
     <g id="text_7">
      <!-- R7 -->
      <g style="fill: #262626" transform="translate(640.070156 533.317188) scale(0.18 -0.18)">
       <defs>
        <path id="DejaVuSans-37" d="M 525 4666 
L 3525 4666 
L 3525 4397 
L 1831 0 
L 1172 0 
L 2766 4134 
L 525 4134 
L 525 4666 
z
" transform="scale(0.015625)"/>
       </defs>
       <use xlink:href="#DejaVuSans-52"/>
       <use xlink:href="#DejaVuSans-37" transform="translate(69.482422 0)"/>
      </g>
     </g>
    </g>
    <g id="xtick_8">
     <g id="line2d_15">
      <path d="M 735.75 512.64 
L 735.75 69.12 
" clip-path="url(#p1b2c894ed3)" style="fill: none; stroke: #cccccc; stroke-width: 0.8; stroke-linecap: round"/>
     </g>
     <g id="line2d_16">
      <g>
       <use xlink:href="#md90c7118d6" x="735.75" y="512.64" style="fill: #262626; stroke: #262626; stroke-width: 0.8"/>
      </g>
     </g>
     <g id="text_8">
      <!-- R8 -->
      <g style="fill: #262626" transform="translate(723.770156 533.317188) scale(0.18 -0.18)">
       <defs>
        <path id="DejaVuSans-38" d="M 2034 2216 
Q 1584 2216 1326 1975 
Q 1069 1734 1069 1313 
Q 1069 891 1326 650 
Q 1584 409 2034 409 
Q 2484 409 2743 651 
Q 3003 894 3003 1313 
Q 3003 1734 2745 1975 
Q 2488 2216 2034 2216 
z
M 1403 2484 
Q 997 2584 770 2862 
Q 544 3141 544 3541 
Q 544 4100 942 4425 
Q 1341 4750 2034 4750 
Q 2731 4750 3128 4425 
Q 3525 4100 3525 3541 
Q 3525 3141 3298 2862 
Q 3072 2584 2669 2484 
Q 3125 2378 3379 2068 
Q 3634 1759 3634 1313 
Q 3634 634 3220 271 
Q 2806 -91 2034 -91 
Q 1263 -91 848 271 
Q 434 634 434 1313 
Q 434 1759 690 2068 
Q 947 2378 1403 2484 
z
M 1172 3481 
Q 1172 3119 1398 2916 
Q 1625 2713 2034 2713 
Q 2441 2713 2670 2916 
Q 2900 3119 2900 3481 
Q 2900 3844 2670 4047 
Q 2441 4250 2034 4250 
Q 1625 4250 1398 4047 
Q 1172 3844 1172 3481 
z
" transform="scale(0.015625)"/>
       </defs>
       <use xlink:href="#DejaVuSans-52"/>
       <use xlink:href="#DejaVuSans-38" transform="translate(69.482422 0)"/>
      </g>
     </g>
    </g>
    <g id="text_9">
     <!-- Ragas -->
     <g style="fill: #262626" transform="translate(409.20875 557.777187) scale(0.22 -0.22)">
      <defs>
       <path id="DejaVuSans-61" d="M 2194 1759 
Q 1497 1759 1228 1600 
Q 959 1441 959 1056 
Q 959 750 1161 570 
Q 1363 391 1709 391 
Q 2188 391 2477 730 
Q 2766 1069 2766 1631 
L 2766 1759 
L 2194 1759 
z
M 3341 1997 
L 3341 0 
L 2766 0 
L 2766 531 
Q 2569 213 2275 61 
Q 1981 -91 1556 -91 
Q 1019 -91 701 211 
Q 384 513 384 1019 
Q 384 1609 779 1909 
Q 1175 2209 1959 2209 
L 2766 2209 
L 2766 2266 
Q 2766 2663 2505 2880 
Q 2244 3097 1772 3097 
Q 1472 3097 1187 3025 
Q 903 2953 641 2809 
L 641 3341 
Q 956 3463 1253 3523 
Q 1550 3584 1831 3584 
Q 2591 3584 2966 3190 
Q 3341 2797 3341 1997 
z
" transform="scale(0.015625)"/>
       <path id="DejaVuSans-67" d="M 2906 1791 
Q 2906 2416 2648 2759 
Q 2391 3103 1925 3103 
Q 1463 3103 1205 2759 
Q 947 2416 947 1791 
Q 947 1169 1205 825 
Q 1463 481 1925 481 
Q 2391 481 2648 825 
Q 2906 1169 2906 1791 
z
M 3481 434 
Q 3481 -459 3084 -895 
Q 2688 -1331 1869 -1331 
Q 1566 -1331 1297 -1286 
Q 1028 -1241 775 -1147 
L 775 -588 
Q 1028 -725 1275 -790 
Q 1522 -856 1778 -856 
Q 2344 -856 2625 -561 
Q 2906 -266 2906 331 
L 2906 616 
Q 2728 306 2450 153 
Q 2172 0 1784 0 
Q 1141 0 747 490 
Q 353 981 353 1791 
Q 353 2603 747 3093 
Q 1141 3584 1784 3584 
Q 2172 3584 2450 3431 
Q 2728 3278 2906 2969 
L 2906 3500 
L 3481 3500 
L 3481 434 
z
" transform="scale(0.015625)"/>
       <path id="DejaVuSans-73" d="M 2834 3397 
L 2834 2853 
Q 2591 2978 2328 3040 
Q 2066 3103 1784 3103 
Q 1356 3103 1142 2972 
Q 928 2841 928 2578 
Q 928 2378 1081 2264 
Q 1234 2150 1697 2047 
L 1894 2003 
Q 2506 1872 2764 1633 
Q 3022 1394 3022 966 
Q 3022 478 2636 193 
Q 2250 -91 1575 -91 
Q 1294 -91 989 -36 
Q 684 19 347 128 
L 347 722 
Q 666 556 975 473 
Q 1284 391 1588 391 
Q 1994 391 2212 530 
Q 2431 669 2431 922 
Q 2431 1156 2273 1281 
Q 2116 1406 1581 1522 
L 1381 1569 
Q 847 1681 609 1914 
Q 372 2147 372 2553 
Q 372 3047 722 3315 
Q 1072 3584 1716 3584 
Q 2034 3584 2315 3537 
Q 2597 3491 2834 3397 
z
" transform="scale(0.015625)"/>
      </defs>
      <use xlink:href="#DejaVuSans-52"/>
      <use xlink:href="#DejaVuSans-61" transform="translate(67.232422 0)"/>
      <use xlink:href="#DejaVuSans-67" transform="translate(128.511719 0)"/>
      <use xlink:href="#DejaVuSans-61" transform="translate(191.988281 0)"/>
      <use xlink:href="#DejaVuSans-73" transform="translate(253.267578 0)"/>
     </g>
    </g>
   </g>
   <g id="matplotlib.axis_2">
    <g id="ytick_1">
     <g id="line2d_17">
      <path d="M 108 509.131842 
L 777.6 509.131842 
" clip-path="url(#p1b2c894ed3)" style="fill: none; stroke: #cccccc; stroke-width: 0.8; stroke-linecap: round"/>
     </g>
     <g id="line2d_18">
      <defs>
       <path id="m71c8bd03f9" d="M 0 0 
L -3.5 0 
" style="stroke: #262626; stroke-width: 0.8"/>
      </defs>
      <g>
       <use xlink:href="#m71c8bd03f9" x="108" y="509.131842" style="fill: #262626; stroke: #262626; stroke-width: 0.8"/>
      </g>
     </g>
     <g id="text_10">
      <!-- −3 -->
      <g style="fill: #262626" transform="translate(74.464062 515.970436) scale(0.18 -0.18)">
       <defs>
        <path id="DejaVuSans-2212" d="M 678 2272 
L 4684 2272 
L 4684 1741 
L 678 1741 
L 678 2272 
z
" transform="scale(0.015625)"/>
       </defs>
       <use xlink:href="#DejaVuSans-2212"/>
       <use xlink:href="#DejaVuSans-33" transform="translate(83.789062 0)"/>
      </g>
     </g>
    </g>
    <g id="ytick_2">
     <g id="line2d_19">
      <path d="M 108 445.016325 
L 777.6 445.016325 
" clip-path="url(#p1b2c894ed3)" style="fill: none; stroke: #cccccc; stroke-width: 0.8; stroke-linecap: round"/>
     </g>
     <g id="line2d_20">
      <g>
       <use xlink:href="#m71c8bd03f9" x="108" y="445.016325" style="fill: #262626; stroke: #262626; stroke-width: 0.8"/>
      </g>
     </g>
     <g id="text_11">
      <!-- −2 -->
      <g style="fill: #262626" transform="translate(74.464062 451.854919) scale(0.18 -0.18)">
       <use xlink:href="#DejaVuSans-2212"/>
       <use xlink:href="#DejaVuSans-32" transform="translate(83.789062 0)"/>
      </g>
     </g>
    </g>
    <g id="ytick_3">
     <g id="line2d_21">
      <path d="M 108 380.900808 
L 777.6 380.900808 
" clip-path="url(#p1b2c894ed3)" style="fill: none; stroke: #cccccc; stroke-width: 0.8; stroke-linecap: round"/>
     </g>
     <g id="line2d_22">
      <g>
       <use xlink:href="#m71c8bd03f9" x="108" y="380.900808" style="fill: #262626; stroke: #262626; stroke-width: 0.8"/>
      </g>
     </g>
     <g id="text_12">
      <!-- −1 -->
      <g style="fill: #262626" transform="translate(74.464062 387.739402) scale(0.18 -0.18)">
       <use xlink:href="#DejaVuSans-2212"/>
       <use xlink:href="#DejaVuSans-31" transform="translate(83.789062 0)"/>
      </g>
     </g>
    </g>
    <g id="ytick_4">
     <g id="line2d_23">
      <path d="M 108 316.785291 
L 777.6 316.785291 
" clip-path="url(#p1b2c894ed3)" style="fill: none; stroke: #cccccc; stroke-width: 0.8; stroke-linecap: round"/>
     </g>
     <g id="line2d_24">
      <g>
       <use xlink:href="#m71c8bd03f9" x="108" y="316.785291" style="fill: #262626; stroke: #262626; stroke-width: 0.8"/>
      </g>
     </g>
     <g id="text_13">
      <!-- 0 -->
      <g style="fill: #262626" transform="translate(89.5475 323.623885) scale(0.18 -0.18)">
       <defs>
        <path id="DejaVuSans-30" d="M 2034 4250 
Q 1547 4250 1301 3770 
Q 1056 3291 1056 2328 
Q 1056 1369 1301 889 
Q 1547 409 2034 409 
Q 2525 409 2770 889 
Q 3016 1369 3016 2328 
Q 3016 3291 2770 3770 
Q 2525 4250 2034 4250 
z
M 2034 4750 
Q 2819 4750 3233 4129 
Q 3647 3509 3647 2328 
Q 3647 1150 3233 529 
Q 2819 -91 2034 -91 
Q 1250 -91 836 529 
Q 422 1150 422 2328 
Q 422 3509 836 4129 
Q 1250 4750 2034 4750 
z
" transform="scale(0.015625)"/>
       </defs>
       <use xlink:href="#DejaVuSans-30"/>
      </g>
     </g>
    </g>
    <g id="ytick_5">
     <g id="line2d_25">
      <path d="M 108 252.669774 
L 777.6 252.669774 
" clip-path="url(#p1b2c894ed3)" style="fill: none; stroke: #cccccc; stroke-width: 0.8; stroke-linecap: round"/>
     </g>
     <g id="line2d_26">
      <g>
       <use xlink:href="#m71c8bd03f9" x="108" y="252.669774" style="fill: #262626; stroke: #262626; stroke-width: 0.8"/>
      </g>
     </g>
     <g id="text_14">
      <!-- 1 -->
      <g style="fill: #262626" transform="translate(89.5475 259.508367) scale(0.18 -0.18)">
       <use xlink:href="#DejaVuSans-31"/>
      </g>
     </g>
    </g>
    <g id="ytick_6">
     <g id="line2d_27">
      <path d="M 108 188.554256 
L 777.6 188.554256 
" clip-path="url(#p1b2c894ed3)" style="fill: none; stroke: #cccccc; stroke-width: 0.8; stroke-linecap: round"/>
     </g>
     <g id="line2d_28">
      <g>
       <use xlink:href="#m71c8bd03f9" x="108" y="188.554256" style="fill: #262626; stroke: #262626; stroke-width: 0.8"/>
      </g>
     </g>
     <g id="text_15">
      <!-- 2 -->
      <g style="fill: #262626" transform="translate(89.5475 195.39285) scale(0.18 -0.18)">
       <use xlink:href="#DejaVuSans-32"/>
      </g>
     </g>
    </g>
    <g id="ytick_7">
     <g id="line2d_29">
      <path d="M 108 124.438739 
L 777.6 124.438739 
" clip-path="url(#p1b2c894ed3)" style="fill: none; stroke: #cccccc; stroke-width: 0.8; stroke-linecap: round"/>
     </g>
     <g id="line2d_30">
      <g>
       <use xlink:href="#m71c8bd03f9" x="108" y="124.438739" style="fill: #262626; stroke: #262626; stroke-width: 0.8"/>
      </g>
     </g>
     <g id="text_16">
      <!-- 3 -->
      <g style="fill: #262626" transform="translate(89.5475 131.277333) scale(0.18 -0.18)">
       <use xlink:href="#DejaVuSans-33"/>
      </g>
     </g>
    </g>
    <g id="text_17">
     <!-- Observed latency of response -->
     <g style="fill: #262626" transform="translate(65.88875 455.26125) rotate(-90) scale(0.22 -0.22)">
      <defs>
       <path id="DejaVuSans-4f" d="M 2522 4238 
Q 1834 4238 1429 3725 
Q 1025 3213 1025 2328 
Q 1025 1447 1429 934 
Q 1834 422 2522 422 
Q 3209 422 3611 934 
Q 4013 1447 4013 2328 
Q 4013 3213 3611 3725 
Q 3209 4238 2522 4238 
z
M 2522 4750 
Q 3503 4750 4090 4092 
Q 4678 3434 4678 2328 
Q 4678 1225 4090 567 
Q 3503 -91 2522 -91 
Q 1538 -91 948 565 
Q 359 1222 359 2328 
Q 359 3434 948 4092 
Q 1538 4750 2522 4750 
z
" transform="scale(0.015625)"/>
       <path id="DejaVuSans-62" d="M 3116 1747 
Q 3116 2381 2855 2742 
Q 2594 3103 2138 3103 
Q 1681 3103 1420 2742 
Q 1159 2381 1159 1747 
Q 1159 1113 1420 752 
Q 1681 391 2138 391 
Q 2594 391 2855 752 
Q 3116 1113 3116 1747 
z
M 1159 2969 
Q 1341 3281 1617 3432 
Q 1894 3584 2278 3584 
Q 2916 3584 3314 3078 
Q 3713 2572 3713 1747 
Q 3713 922 3314 415 
Q 2916 -91 2278 -91 
Q 1894 -91 1617 61 
Q 1341 213 1159 525 
L 1159 0 
L 581 0 
L 581 4863 
L 1159 4863 
L 1159 2969 
z
" transform="scale(0.015625)"/>
       <path id="DejaVuSans-65" d="M 3597 1894 
L 3597 1613 
L 953 1613 
Q 991 1019 1311 708 
Q 1631 397 2203 397 
Q 2534 397 2845 478 
Q 3156 559 3463 722 
L 3463 178 
Q 3153 47 2828 -22 
Q 2503 -91 2169 -91 
Q 1331 -91 842 396 
Q 353 884 353 1716 
Q 353 2575 817 3079 
Q 1281 3584 2069 3584 
Q 2775 3584 3186 3129 
Q 3597 2675 3597 1894 
z
M 3022 2063 
Q 3016 2534 2758 2815 
Q 2500 3097 2075 3097 
Q 1594 3097 1305 2825 
Q 1016 2553 972 2059 
L 3022 2063 
z
" transform="scale(0.015625)"/>
       <path id="DejaVuSans-72" d="M 2631 2963 
Q 2534 3019 2420 3045 
Q 2306 3072 2169 3072 
Q 1681 3072 1420 2755 
Q 1159 2438 1159 1844 
L 1159 0 
L 581 0 
L 581 3500 
L 1159 3500 
L 1159 2956 
Q 1341 3275 1631 3429 
Q 1922 3584 2338 3584 
Q 2397 3584 2469 3576 
Q 2541 3569 2628 3553 
L 2631 2963 
z
" transform="scale(0.015625)"/>
       <path id="DejaVuSans-76" d="M 191 3500 
L 800 3500 
L 1894 563 
L 2988 3500 
L 3597 3500 
L 2284 0 
L 1503 0 
L 191 3500 
z
" transform="scale(0.015625)"/>
       <path id="DejaVuSans-64" d="M 2906 2969 
L 2906 4863 
L 3481 4863 
L 3481 0 
L 2906 0 
L 2906 525 
Q 2725 213 2448 61 
Q 2172 -91 1784 -91 
Q 1150 -91 751 415 
Q 353 922 353 1747 
Q 353 2572 751 3078 
Q 1150 3584 1784 3584 
Q 2172 3584 2448 3432 
Q 2725 3281 2906 2969 
z
M 947 1747 
Q 947 1113 1208 752 
Q 1469 391 1925 391 
Q 2381 391 2643 752 
Q 2906 1113 2906 1747 
Q 2906 2381 2643 2742 
Q 2381 3103 1925 3103 
Q 1469 3103 1208 2742 
Q 947 2381 947 1747 
z
" transform="scale(0.015625)"/>
       <path id="DejaVuSans-20" transform="scale(0.015625)"/>
       <path id="DejaVuSans-6c" d="M 603 4863 
L 1178 4863 
L 1178 0 
L 603 0 
L 603 4863 
z
" transform="scale(0.015625)"/>
       <path id="DejaVuSans-74" d="M 1172 4494 
L 1172 3500 
L 2356 3500 
L 2356 3053 
L 1172 3053 
L 1172 1153 
Q 1172 725 1289 603 
Q 1406 481 1766 481 
L 2356 481 
L 2356 0 
L 1766 0 
Q 1100 0 847 248 
Q 594 497 594 1153 
L 594 3053 
L 172 3053 
L 172 3500 
L 594 3500 
L 594 4494 
L 1172 4494 
z
" transform="scale(0.015625)"/>
       <path id="DejaVuSans-6e" d="M 3513 2113 
L 3513 0 
L 2938 0 
L 2938 2094 
Q 2938 2591 2744 2837 
Q 2550 3084 2163 3084 
Q 1697 3084 1428 2787 
Q 1159 2491 1159 1978 
L 1159 0 
L 581 0 
L 581 3500 
L 1159 3500 
L 1159 2956 
Q 1366 3272 1645 3428 
Q 1925 3584 2291 3584 
Q 2894 3584 3203 3211 
Q 3513 2838 3513 2113 
z
" transform="scale(0.015625)"/>
       <path id="DejaVuSans-63" d="M 3122 3366 
L 3122 2828 
Q 2878 2963 2633 3030 
Q 2388 3097 2138 3097 
Q 1578 3097 1268 2742 
Q 959 2388 959 1747 
Q 959 1106 1268 751 
Q 1578 397 2138 397 
Q 2388 397 2633 464 
Q 2878 531 3122 666 
L 3122 134 
Q 2881 22 2623 -34 
Q 2366 -91 2075 -91 
Q 1284 -91 818 406 
Q 353 903 353 1747 
Q 353 2603 823 3093 
Q 1294 3584 2113 3584 
Q 2378 3584 2631 3529 
Q 2884 3475 3122 3366 
z
" transform="scale(0.015625)"/>
       <path id="DejaVuSans-79" d="M 2059 -325 
Q 1816 -950 1584 -1140 
Q 1353 -1331 966 -1331 
L 506 -1331 
L 506 -850 
L 844 -850 
Q 1081 -850 1212 -737 
Q 1344 -625 1503 -206 
L 1606 56 
L 191 3500 
L 800 3500 
L 1894 763 
L 2988 3500 
L 3597 3500 
L 2059 -325 
z
" transform="scale(0.015625)"/>
       <path id="DejaVuSans-6f" d="M 1959 3097 
Q 1497 3097 1228 2736 
Q 959 2375 959 1747 
Q 959 1119 1226 758 
Q 1494 397 1959 397 
Q 2419 397 2687 759 
Q 2956 1122 2956 1747 
Q 2956 2369 2687 2733 
Q 2419 3097 1959 3097 
z
M 1959 3584 
Q 2709 3584 3137 3096 
Q 3566 2609 3566 1747 
Q 3566 888 3137 398 
Q 2709 -91 1959 -91 
Q 1206 -91 779 398 
Q 353 888 353 1747 
Q 353 2609 779 3096 
Q 1206 3584 1959 3584 
z
" transform="scale(0.015625)"/>
       <path id="DejaVuSans-66" d="M 2375 4863 
L 2375 4384 
L 1825 4384 
Q 1516 4384 1395 4259 
Q 1275 4134 1275 3809 
L 1275 3500 
L 2222 3500 
L 2222 3053 
L 1275 3053 
L 1275 0 
L 697 0 
L 697 3053 
L 147 3053 
L 147 3500 
L 697 3500 
L 697 3744 
Q 697 4328 969 4595 
Q 1241 4863 1831 4863 
L 2375 4863 
z
" transform="scale(0.015625)"/>
       <path id="DejaVuSans-70" d="M 1159 525 
L 1159 -1331 
L 581 -1331 
L 581 3500 
L 1159 3500 
L 1159 2969 
Q 1341 3281 1617 3432 
Q 1894 3584 2278 3584 
Q 2916 3584 3314 3078 
Q 3713 2572 3713 1747 
Q 3713 922 3314 415 
Q 2916 -91 2278 -91 
Q 1894 -91 1617 61 
Q 1341 213 1159 525 
z
M 3116 1747 
Q 3116 2381 2855 2742 
Q 2594 3103 2138 3103 
Q 1681 3103 1420 2742 
Q 1159 2381 1159 1747 
Q 1159 1113 1420 752 
Q 1681 391 2138 391 
Q 2594 391 2855 752 
Q 3116 1113 3116 1747 
z
" transform="scale(0.015625)"/>
      </defs>
      <use xlink:href="#DejaVuSans-4f"/>
      <use xlink:href="#DejaVuSans-62" transform="translate(78.710938 0)"/>
      <use xlink:href="#DejaVuSans-73" transform="translate(142.1875 0)"/>
      <use xlink:href="#DejaVuSans-65" transform="translate(194.287109 0)"/>
      <use xlink:href="#DejaVuSans-72" transform="translate(255.810547 0)"/>
      <use xlink:href="#DejaVuSans-76" transform="translate(296.923828 0)"/>
      <use xlink:href="#DejaVuSans-65" transform="translate(356.103516 0)"/>
      <use xlink:href="#DejaVuSans-64" transform="translate(417.626953 0)"/>
      <use xlink:href="#DejaVuSans-20" transform="translate(481.103516 0)"/>
      <use xlink:href="#DejaVuSans-6c" transform="translate(512.890625 0)"/>
      <use xlink:href="#DejaVuSans-61" transform="translate(540.673828 0)"/>
      <use xlink:href="#DejaVuSans-74" transform="translate(601.953125 0)"/>
      <use xlink:href="#DejaVuSans-65" transform="translate(641.162109 0)"/>
      <use xlink:href="#DejaVuSans-6e" transform="translate(702.685547 0)"/>
      <use xlink:href="#DejaVuSans-63" transform="translate(766.064453 0)"/>
      <use xlink:href="#DejaVuSans-79" transform="translate(821.044922 0)"/>
      <use xlink:href="#DejaVuSans-20" transform="translate(880.224609 0)"/>
      <use xlink:href="#DejaVuSans-6f" transform="translate(912.011719 0)"/>
      <use xlink:href="#DejaVuSans-66" transform="translate(973.193359 0)"/>
      <use xlink:href="#DejaVuSans-20" transform="translate(1008.398438 0)"/>
      <use xlink:href="#DejaVuSans-72" transform="translate(1040.185547 0)"/>
      <use xlink:href="#DejaVuSans-65" transform="translate(1079.048828 0)"/>
      <use xlink:href="#DejaVuSans-73" transform="translate(1140.572266 0)"/>
      <use xlink:href="#DejaVuSans-70" transform="translate(1192.671875 0)"/>
      <use xlink:href="#DejaVuSans-6f" transform="translate(1256.148438 0)"/>
      <use xlink:href="#DejaVuSans-6e" transform="translate(1317.330078 0)"/>
      <use xlink:href="#DejaVuSans-73" transform="translate(1380.708984 0)"/>
      <use xlink:href="#DejaVuSans-65" transform="translate(1432.808594 0)"/>
     </g>
    </g>
   </g>
   <g id="FillBetweenPolyCollection_1">
    <path d="M 150.886967 434.098318 
L 148.813033 434.098318 
L 148.510227 430.750773 
L 148.139388 427.403227 
L 147.691408 424.055682 
L 147.157606 420.708137 
L 146.53021 417.360591 
L 145.802865 414.013046 
L 144.971145 410.6655 
L 144.033035 407.317955 
L 142.989325 403.970409 
L 141.843885 400.622864 
L 140.603787 397.275318 
L 139.279233 393.927773 
L 137.8833 390.580227 
L 136.431484 387.232682 
L 134.941087 383.885136 
L 133.430477 380.537591 
L 131.918283 377.190045 
L 130.422594 373.8425 
L 128.960223 370.494954 
L 127.546107 367.147409 
L 126.192888 363.799863 
L 124.910711 360.452318 
L 123.707241 357.104772 
L 122.587885 353.757227 
L 121.556181 350.409681 
L 120.614285 347.062136 
L 119.763506 343.71459 
L 119.004785 340.367045 
L 118.339078 337.019499 
L 117.767583 333.671954 
L 117.291762 330.324408 
L 116.91318 326.976863 
L 116.633164 323.629317 
L 116.452323 320.281772 
L 116.37 316.934226 
L 116.383736 313.586681 
L 116.4888 310.239135 
L 116.67788 306.89159 
L 116.940974 303.544044 
L 117.265529 300.196499 
L 117.63682 296.848953 
L 118.038579 293.501408 
L 118.453805 290.153862 
L 118.865715 286.806317 
L 119.258751 283.458771 
L 119.619558 280.111226 
L 119.937864 276.763681 
L 120.207162 273.416135 
L 120.425166 270.06859 
L 120.59397 266.721044 
L 120.719921 263.373499 
L 120.813181 260.025953 
L 120.887038 256.678408 
L 120.95699 253.330862 
L 121.039686 249.983317 
L 121.151791 246.635771 
L 121.308863 243.288226 
L 121.524328 239.94068 
L 121.808626 236.593135 
L 122.168594 233.245589 
L 122.607129 229.898044 
L 123.123162 226.550498 
L 123.711933 223.202953 
L 124.365547 219.855407 
L 125.07375 216.507862 
L 125.824872 213.160316 
L 126.606831 209.812771 
L 127.408122 206.465225 
L 128.218698 203.11768 
L 129.030655 199.770134 
L 129.838688 196.422589 
L 130.640251 193.075043 
L 131.43544 189.727498 
L 132.226612 186.379952 
L 133.017787 183.032407 
L 133.813905 179.684861 
L 134.620013 176.337316 
L 135.440474 172.98977 
L 136.278273 169.642225 
L 137.134476 166.294679 
L 138.007913 162.947134 
L 138.895072 159.599588 
L 139.790228 156.252043 
L 140.68578 152.904497 
L 141.572734 149.556952 
L 142.4413 146.209406 
L 143.281525 142.861861 
L 144.083915 139.514315 
L 144.839986 136.16677 
L 145.542701 132.819225 
L 146.186779 129.471679 
L 146.768855 126.124134 
L 147.287497 122.776588 
L 147.743101 119.429043 
L 148.137686 116.081497 
L 148.47461 112.733952 
L 148.758257 109.386406 
L 148.993705 106.038861 
L 149.186416 102.691315 
L 150.513584 102.691315 
L 150.513584 102.691315 
L 150.706295 106.038861 
L 150.941743 109.386406 
L 151.22539 112.733952 
L 151.562314 116.081497 
L 151.956899 119.429043 
L 152.412503 122.776588 
L 152.931145 126.124134 
L 153.513221 129.471679 
L 154.157299 132.819225 
L 154.860014 136.16677 
L 155.616085 139.514315 
L 156.418475 142.861861 
L 157.2587 146.209406 
L 158.127266 149.556952 
L 159.01422 152.904497 
L 159.909772 156.252043 
L 160.804928 159.599588 
L 161.692087 162.947134 
L 162.565524 166.294679 
L 163.421727 169.642225 
L 164.259526 172.98977 
L 165.079987 176.337316 
L 165.886095 179.684861 
L 166.682213 183.032407 
L 167.473388 186.379952 
L 168.26456 189.727498 
L 169.059749 193.075043 
L 169.861312 196.422589 
L 170.669345 199.770134 
L 171.481302 203.11768 
L 172.291878 206.465225 
L 173.093169 209.812771 
L 173.875128 213.160316 
L 174.62625 216.507862 
L 175.334453 219.855407 
L 175.988067 223.202953 
L 176.576838 226.550498 
L 177.092871 229.898044 
L 177.531406 233.245589 
L 177.891374 236.593135 
L 178.175672 239.94068 
L 178.391137 243.288226 
L 178.548209 246.635771 
L 178.660314 249.983317 
L 178.74301 253.330862 
L 178.812962 256.678408 
L 178.886819 260.025953 
L 178.980079 263.373499 
L 179.10603 266.721044 
L 179.274834 270.06859 
L 179.492838 273.416135 
L 179.762136 276.763681 
L 180.080442 280.111226 
L 180.441249 283.458771 
L 180.834285 286.806317 
L 181.246195 290.153862 
L 181.661421 293.501408 
L 182.06318 296.848953 
L 182.434471 300.196499 
L 182.759026 303.544044 
L 183.02212 306.89159 
L 183.2112 310.239135 
L 183.316264 313.586681 
L 183.33 316.934226 
L 183.247677 320.281772 
L 183.066836 323.629317 
L 182.78682 326.976863 
L 182.408238 330.324408 
L 181.932417 333.671954 
L 181.360922 337.019499 
L 180.695215 340.367045 
L 179.936494 343.71459 
L 179.085715 347.062136 
L 178.143819 350.409681 
L 177.112115 353.757227 
L 175.992759 357.104772 
L 174.789289 360.452318 
L 173.507112 363.799863 
L 172.153893 367.147409 
L 170.739777 370.494954 
L 169.277406 373.8425 
L 167.781717 377.190045 
L 166.269523 380.537591 
L 164.758913 383.885136 
L 163.268516 387.232682 
L 161.8167 390.580227 
L 160.420767 393.927773 
L 159.096213 397.275318 
L 157.856115 400.622864 
L 156.710675 403.970409 
L 155.666965 407.317955 
L 154.728855 410.6655 
L 153.897135 414.013046 
L 153.16979 417.360591 
L 152.542394 420.708137 
L 152.008592 424.055682 
L 151.560612 427.403227 
L 151.189773 430.750773 
L 150.886967 434.098318 
L 150.886967 434.098318 
z
" clip-path="url(#p1b2c894ed3)" style="fill: none; stroke: #1f77b4; stroke-width: 1.5"/>
   </g>
   <g id="FillBetweenPolyCollection_2">
    <path d="M 233.771318 492.48 
L 233.328682 492.48 
L 233.259141 488.549976 
L 233.173317 484.619953 
L 233.068992 480.689929 
L 232.943942 476.759906 
L 232.79593 472.829882 
L 232.622644 468.899858 
L 232.421573 464.969835 
L 232.189826 461.039811 
L 231.923885 457.109788 
L 231.619325 453.179764 
L 231.270532 449.24974 
L 230.87045 445.319717 
L 230.410424 441.389693 
L 229.88019 437.45967 
L 229.26805 433.529646 
L 228.561289 429.599622 
L 227.746831 425.669599 
L 226.81214 421.739575 
L 225.746319 417.809552 
L 224.541348 413.879528 
L 223.193356 409.949504 
L 221.703828 406.019481 
L 220.0806 402.089457 
L 218.338545 398.159434 
L 216.499817 394.22941 
L 214.593593 390.299386 
L 212.655259 386.369363 
L 210.725053 382.439339 
L 208.84624 378.509316 
L 207.062922 374.579292 
L 205.417655 370.649268 
L 203.949064 366.719245 
L 202.689673 362.789221 
L 201.66413 358.859198 
L 200.888012 354.929174 
L 200.367304 350.99915 
L 200.098602 347.069127 
L 200.07 343.139103 
L 200.262552 339.20908 
L 200.652143 335.279056 
L 201.211562 331.349032 
L 201.912547 327.419009 
L 202.727609 323.488985 
L 203.631482 319.558962 
L 204.602067 315.628938 
L 205.620877 311.698914 
L 206.672988 307.768891 
L 207.746595 303.838867 
L 208.832298 299.908844 
L 209.922254 295.97882 
L 211.009332 292.048796 
L 212.086373 288.118773 
L 213.145653 284.188749 
L 214.178571 280.258726 
L 215.175606 276.328702 
L 216.126512 272.398678 
L 217.020728 268.468655 
L 217.847973 264.538631 
L 218.598951 260.608608 
L 219.26612 256.678584 
L 219.844448 252.74856 
L 220.332083 248.818537 
L 220.730849 244.888513 
L 221.046516 240.958489 
L 221.288768 237.028466 
L 221.47086 233.098442 
L 221.608955 229.168419 
L 221.721194 225.238395 
L 221.826567 221.308371 
L 221.943692 217.378348 
L 222.089621 213.448324 
L 222.278781 209.518301 
L 222.52216 205.588277 
L 222.826785 201.658253 
L 223.195547 197.72823 
L 223.627344 193.798206 
L 224.117508 189.868183 
L 224.65844 185.938159 
L 225.240383 182.008135 
L 225.852223 178.078112 
L 226.482269 174.148088 
L 227.118926 170.218065 
L 227.751256 166.288041 
L 228.369374 162.358017 
L 228.964719 158.427994 
L 229.530188 154.49797 
L 230.06018 150.567947 
L 230.550564 146.637923 
L 230.9986 142.707899 
L 231.402828 138.777876 
L 231.762945 134.847852 
L 232.079666 130.917829 
L 232.354584 126.987805 
L 232.590019 123.057781 
L 232.78886 119.127758 
L 232.954413 115.197734 
L 233.090238 111.267711 
L 233.200004 107.337687 
L 233.287348 103.407663 
L 233.812652 103.407663 
L 233.812652 103.407663 
L 233.899996 107.337687 
L 234.009762 111.267711 
L 234.145587 115.197734 
L 234.31114 119.127758 
L 234.509981 123.057781 
L 234.745416 126.987805 
L 235.020334 130.917829 
L 235.337055 134.847852 
L 235.697172 138.777876 
L 236.1014 142.707899 
L 236.549436 146.637923 
L 237.03982 150.567947 
L 237.569812 154.49797 
L 238.135281 158.427994 
L 238.730626 162.358017 
L 239.348744 166.288041 
L 239.981074 170.218065 
L 240.617731 174.148088 
L 241.247777 178.078112 
L 241.859617 182.008135 
L 242.44156 185.938159 
L 242.982492 189.868183 
L 243.472656 193.798206 
L 243.904453 197.72823 
L 244.273215 201.658253 
L 244.57784 205.588277 
L 244.821219 209.518301 
L 245.010379 213.448324 
L 245.156308 217.378348 
L 245.273433 221.308371 
L 245.378806 225.238395 
L 245.491045 229.168419 
L 245.62914 233.098442 
L 245.811232 237.028466 
L 246.053484 240.958489 
L 246.369151 244.888513 
L 246.767917 248.818537 
L 247.255552 252.74856 
L 247.83388 256.678584 
L 248.501049 260.608608 
L 249.252027 264.538631 
L 250.079272 268.468655 
L 250.973488 272.398678 
L 251.924394 276.328702 
L 252.921429 280.258726 
L 253.954347 284.188749 
L 255.013627 288.118773 
L 256.090668 292.048796 
L 257.177746 295.97882 
L 258.267702 299.908844 
L 259.353405 303.838867 
L 260.427012 307.768891 
L 261.479123 311.698914 
L 262.497933 315.628938 
L 263.468518 319.558962 
L 264.372391 323.488985 
L 265.187453 327.419009 
L 265.888438 331.349032 
L 266.447857 335.279056 
L 266.837448 339.20908 
L 267.03 343.139103 
L 267.001398 347.069127 
L 266.732696 350.99915 
L 266.211988 354.929174 
L 265.43587 358.859198 
L 264.410327 362.789221 
L 263.150936 366.719245 
L 261.682345 370.649268 
L 260.037078 374.579292 
L 258.25376 378.509316 
L 256.374947 382.439339 
L 254.444741 386.369363 
L 252.506407 390.299386 
L 250.600183 394.22941 
L 248.761455 398.159434 
L 247.0194 402.089457 
L 245.396172 406.019481 
L 243.906644 409.949504 
L 242.558652 413.879528 
L 241.353681 417.809552 
L 240.28786 421.739575 
L 239.353169 425.669599 
L 238.538711 429.599622 
L 237.83195 433.529646 
L 237.21981 437.45967 
L 236.689576 441.389693 
L 236.22955 445.319717 
L 235.829468 449.24974 
L 235.480675 453.179764 
L 235.176115 457.109788 
L 234.910174 461.039811 
L 234.678427 464.969835 
L 234.477356 468.899858 
L 234.30407 472.829882 
L 234.156058 476.759906 
L 234.031008 480.689929 
L 233.926683 484.619953 
L 233.840859 488.549976 
L 233.771318 492.48 
L 233.771318 492.48 
z
" clip-path="url(#p1b2c894ed3)" style="fill: none; stroke: #ff7f0e; stroke-width: 1.5"/>
   </g>
   <g id="FillBetweenPolyCollection_3">
    <path d="M 317.943675 459.914857 
L 316.556325 459.914857 
L 316.303018 456.314279 
L 315.974703 452.713702 
L 315.555686 449.113124 
L 315.029167 445.512547 
L 314.37789 441.91197 
L 313.585021 438.311392 
L 312.635257 434.710815 
L 311.516124 431.110237 
L 310.219394 427.50966 
L 308.742524 423.909082 
L 307.08999 420.308505 
L 305.274369 416.707928 
L 303.317004 413.10735 
L 301.24812 409.506773 
L 299.106275 405.906195 
L 296.937087 402.305618 
L 294.791254 398.70504 
L 292.721949 395.104463 
L 290.78179 391.503886 
L 289.019606 387.903308 
L 287.477306 384.302731 
L 286.187167 380.702153 
L 285.16981 377.101576 
L 284.4331 373.500998 
L 283.972086 369.900421 
L 283.77 366.299844 
L 283.800187 362.699266 
L 284.028764 359.098689 
L 284.417688 355.498111 
L 284.927905 351.897534 
L 285.522246 348.296956 
L 286.167793 344.696379 
L 286.837512 341.095802 
L 287.51109 337.495224 
L 288.174978 333.894647 
L 288.821774 330.294069 
L 289.449127 326.693492 
L 290.058385 323.092914 
L 290.653207 319.492337 
L 291.238302 315.89176 
L 291.81845 312.291182 
L 292.39783 308.690605 
L 292.979683 305.090027 
L 293.566234 301.48945 
L 294.158802 297.888872 
L 294.758004 294.288295 
L 295.363965 290.687718 
L 295.976477 287.08714 
L 296.59508 283.486563 
L 297.219059 279.885985 
L 297.847378 276.285408 
L 298.478604 272.68483 
L 299.110851 269.084253 
L 299.741784 265.483675 
L 300.368718 261.883098 
L 300.988804 258.282521 
L 301.599296 254.681943 
L 302.197869 251.081366 
L 302.782934 247.480788 
L 303.35391 243.880211 
L 303.911388 240.279633 
L 304.457169 236.679056 
L 304.994131 233.078479 
L 305.525936 229.477901 
L 306.056603 225.877324 
L 306.58998 222.276746 
L 307.129204 218.676169 
L 307.676185 215.075591 
L 308.231228 211.475014 
L 308.792819 207.874437 
L 309.357628 204.273859 
L 309.920738 200.673282 
L 310.476066 197.072704 
L 311.016939 193.472127 
L 311.536739 189.871549 
L 312.02954 186.270972 
L 312.49066 182.670395 
L 312.91705 179.069817 
L 313.307488 175.46924 
L 313.662556 171.868662 
L 313.98442 168.268085 
L 314.276452 164.667507 
L 314.542762 161.06693 
L 314.78769 157.466353 
L 315.015344 153.865775 
L 315.229221 150.265198 
L 315.431958 146.66462 
L 315.62522 143.064043 
L 315.809721 139.463465 
L 315.985362 135.862888 
L 316.151438 132.262311 
L 316.306889 128.661733 
L 316.450551 125.061156 
L 316.581375 121.460578 
L 316.698598 117.860001 
L 316.801845 114.259423 
L 316.891173 110.658846 
L 316.96706 107.058269 
L 317.030344 103.457691 
L 317.469656 103.457691 
L 317.469656 103.457691 
L 317.53294 107.058269 
L 317.608827 110.658846 
L 317.698155 114.259423 
L 317.801402 117.860001 
L 317.918625 121.460578 
L 318.049449 125.061156 
L 318.193111 128.661733 
L 318.348562 132.262311 
L 318.514638 135.862888 
L 318.690279 139.463465 
L 318.87478 143.064043 
L 319.068042 146.66462 
L 319.270779 150.265198 
L 319.484656 153.865775 
L 319.71231 157.466353 
L 319.957238 161.06693 
L 320.223548 164.667507 
L 320.51558 168.268085 
L 320.837444 171.868662 
L 321.192512 175.46924 
L 321.58295 179.069817 
L 322.00934 182.670395 
L 322.47046 186.270972 
L 322.963261 189.871549 
L 323.483061 193.472127 
L 324.023934 197.072704 
L 324.579262 200.673282 
L 325.142372 204.273859 
L 325.707181 207.874437 
L 326.268772 211.475014 
L 326.823815 215.075591 
L 327.370796 218.676169 
L 327.91002 222.276746 
L 328.443397 225.877324 
L 328.974064 229.477901 
L 329.505869 233.078479 
L 330.042831 236.679056 
L 330.588612 240.279633 
L 331.14609 243.880211 
L 331.717066 247.480788 
L 332.302131 251.081366 
L 332.900704 254.681943 
L 333.511196 258.282521 
L 334.131282 261.883098 
L 334.758216 265.483675 
L 335.389149 269.084253 
L 336.021396 272.68483 
L 336.652622 276.285408 
L 337.280941 279.885985 
L 337.90492 283.486563 
L 338.523523 287.08714 
L 339.136035 290.687718 
L 339.741996 294.288295 
L 340.341198 297.888872 
L 340.933766 301.48945 
L 341.520317 305.090027 
L 342.10217 308.690605 
L 342.68155 312.291182 
L 343.261698 315.89176 
L 343.846793 319.492337 
L 344.441615 323.092914 
L 345.050873 326.693492 
L 345.678226 330.294069 
L 346.325022 333.894647 
L 346.98891 337.495224 
L 347.662488 341.095802 
L 348.332207 344.696379 
L 348.977754 348.296956 
L 349.572095 351.897534 
L 350.082312 355.498111 
L 350.471236 359.098689 
L 350.699813 362.699266 
L 350.73 366.299844 
L 350.527914 369.900421 
L 350.0669 373.500998 
L 349.33019 377.101576 
L 348.312833 380.702153 
L 347.022694 384.302731 
L 345.480394 387.903308 
L 343.71821 391.503886 
L 341.778051 395.104463 
L 339.708746 398.70504 
L 337.562913 402.305618 
L 335.393725 405.906195 
L 333.25188 409.506773 
L 331.182996 413.10735 
L 329.225631 416.707928 
L 327.41001 420.308505 
L 325.757476 423.909082 
L 324.280606 427.50966 
L 322.983876 431.110237 
L 321.864743 434.710815 
L 320.914979 438.311392 
L 320.12211 441.91197 
L 319.470833 445.512547 
L 318.944314 449.113124 
L 318.525297 452.713702 
L 318.196982 456.314279 
L 317.943675 459.914857 
L 317.943675 459.914857 
z
" clip-path="url(#p1b2c894ed3)" style="fill: none; stroke: #2ca02c; stroke-width: 1.5"/>
   </g>
   <g id="FillBetweenPolyCollection_4">
    <path d="M 401.730759 447.747273 
L 400.169241 447.747273 
L 399.914452 444.924452 
L 399.593342 442.101631 
L 399.194148 439.27881 
L 398.704593 436.455989 
L 398.112308 433.633168 
L 397.405358 430.810347 
L 396.572857 427.987526 
L 395.605656 425.164705 
L 394.497083 422.341884 
L 393.243675 419.519063 
L 391.845893 416.696242 
L 390.308747 413.873421 
L 388.642296 411.0506 
L 386.861969 408.227779 
L 384.988672 405.404958 
L 383.048637 402.582137 
L 381.07299 399.759316 
L 379.097032 396.936495 
L 377.159228 394.113674 
L 375.29994 391.290853 
L 373.559933 388.468032 
L 371.978735 385.645211 
L 370.592924 382.82239 
L 369.434436 379.999569 
L 368.529007 377.176748 
L 367.894845 374.353927 
L 367.541643 371.531106 
L 367.47 368.708285 
L 367.671319 365.885464 
L 368.128198 363.062643 
L 368.815307 360.239822 
L 369.700704 357.417001 
L 370.747514 354.59418 
L 371.915854 351.771359 
L 373.164875 348.948538 
L 374.454806 346.125717 
L 375.748838 343.302896 
L 377.014744 340.480075 
L 378.226146 337.657254 
L 379.363343 334.834433 
L 380.413676 332.011612 
L 381.371441 329.188791 
L 382.237364 326.36597 
L 383.017727 323.543149 
L 383.723202 320.720328 
L 384.367512 317.897507 
L 384.96602 315.074686 
L 385.534342 312.251865 
L 386.087074 309.429044 
L 386.636729 306.606223 
L 387.192911 303.783402 
L 387.761786 300.960581 
L 388.345846 298.13776 
L 388.943966 295.314939 
L 389.551712 292.492118 
L 390.161873 289.669297 
L 390.765152 286.846476 
L 391.350961 284.023655 
L 391.908257 281.200834 
L 392.426377 278.378013 
L 392.895797 275.555192 
L 393.308795 272.732371 
L 393.659973 269.90955 
L 393.946621 267.086729 
L 394.168904 264.263908 
L 394.329878 261.441087 
L 394.435332 258.618266 
L 394.493477 255.795445 
L 394.514498 252.972624 
L 394.510004 250.149803 
L 394.492405 247.326982 
L 394.474257 244.504161 
L 394.467607 241.68134 
L 394.483392 238.858519 
L 394.530906 236.035698 
L 394.617383 233.212877 
L 394.747715 230.390056 
L 394.924307 227.567235 
L 395.147087 224.744414 
L 395.413652 221.921593 
L 395.719535 219.098772 
L 396.058582 216.275951 
L 396.423381 213.45313 
L 396.80574 210.630309 
L 397.197162 207.807488 
L 397.589291 204.984667 
L 397.974309 202.161846 
L 398.345258 199.339025 
L 398.696281 196.516204 
L 399.022764 193.693383 
L 399.321403 190.870562 
L 399.590182 188.047741 
L 399.828287 185.22492 
L 400.035964 182.402099 
L 400.214348 179.579278 
L 400.36527 176.756457 
L 400.491055 173.933636 
L 400.59434 171.110815 
L 400.677899 168.287994 
L 401.222101 168.287994 
L 401.222101 168.287994 
L 401.30566 171.110815 
L 401.408945 173.933636 
L 401.53473 176.756457 
L 401.685652 179.579278 
L 401.864036 182.402099 
L 402.071713 185.22492 
L 402.309818 188.047741 
L 402.578597 190.870562 
L 402.877236 193.693383 
L 403.203719 196.516204 
L 403.554742 199.339025 
L 403.925691 202.161846 
L 404.310709 204.984667 
L 404.702838 207.807488 
L 405.09426 210.630309 
L 405.476619 213.45313 
L 405.841418 216.275951 
L 406.180465 219.098772 
L 406.486348 221.921593 
L 406.752913 224.744414 
L 406.975693 227.567235 
L 407.152285 230.390056 
L 407.282617 233.212877 
L 407.369094 236.035698 
L 407.416608 238.858519 
L 407.432393 241.68134 
L 407.425743 244.504161 
L 407.407595 247.326982 
L 407.389996 250.149803 
L 407.385502 252.972624 
L 407.406523 255.795445 
L 407.464668 258.618266 
L 407.570122 261.441087 
L 407.731096 264.263908 
L 407.953379 267.086729 
L 408.240027 269.90955 
L 408.591205 272.732371 
L 409.004203 275.555192 
L 409.473623 278.378013 
L 409.991743 281.200834 
L 410.549039 284.023655 
L 411.134848 286.846476 
L 411.738127 289.669297 
L 412.348288 292.492118 
L 412.956034 295.314939 
L 413.554154 298.13776 
L 414.138214 300.960581 
L 414.707089 303.783402 
L 415.263271 306.606223 
L 415.812926 309.429044 
L 416.365658 312.251865 
L 416.93398 315.074686 
L 417.532488 317.897507 
L 418.176798 320.720328 
L 418.882273 323.543149 
L 419.662636 326.36597 
L 420.528559 329.188791 
L 421.486324 332.011612 
L 422.536657 334.834433 
L 423.673854 337.657254 
L 424.885256 340.480075 
L 426.151162 343.302896 
L 427.445194 346.125717 
L 428.735125 348.948538 
L 429.984146 351.771359 
L 431.152486 354.59418 
L 432.199296 357.417001 
L 433.084693 360.239822 
L 433.771802 363.062643 
L 434.228681 365.885464 
L 434.43 368.708285 
L 434.358357 371.531106 
L 434.005155 374.353927 
L 433.370993 377.176748 
L 432.465564 379.999569 
L 431.307076 382.82239 
L 429.921265 385.645211 
L 428.340067 388.468032 
L 426.60006 391.290853 
L 424.740772 394.113674 
L 422.802968 396.936495 
L 420.82701 399.759316 
L 418.851363 402.582137 
L 416.911328 405.404958 
L 415.038031 408.227779 
L 413.257704 411.0506 
L 411.591253 413.873421 
L 410.054107 416.696242 
L 408.656325 419.519063 
L 407.402917 422.341884 
L 406.294344 425.164705 
L 405.327143 427.987526 
L 404.494642 430.810347 
L 403.787692 433.633168 
L 403.195407 436.455989 
L 402.705852 439.27881 
L 402.306658 442.101631 
L 401.985548 444.924452 
L 401.730759 447.747273 
L 401.730759 447.747273 
z
" clip-path="url(#p1b2c894ed3)" style="fill: none; stroke: #d62728; stroke-width: 1.5"/>
   </g>
   <g id="FillBetweenPolyCollection_5">
    <path d="M 485.098576 466.873832 
L 484.201424 466.873832 
L 484.045959 463.126195 
L 483.846542 459.378557 
L 483.594087 455.630919 
L 483.278612 451.883281 
L 482.88941 448.135644 
L 482.415306 444.388006 
L 481.845006 440.640368 
L 481.167529 436.89273 
L 480.372724 433.145093 
L 479.451865 429.397455 
L 478.398298 425.649817 
L 477.208115 421.902179 
L 475.880822 418.154542 
L 474.419955 414.406904 
L 472.833596 410.659266 
L 471.13473 406.911628 
L 469.341408 403.163991 
L 467.476649 399.416353 
L 465.568074 395.668715 
L 463.647252 391.921078 
L 461.748765 388.17344 
L 459.909038 384.425802 
L 458.164986 380.678164 
L 456.552569 376.930527 
L 455.105336 373.182889 
L 453.853069 369.435251 
L 452.820603 365.687613 
L 452.026915 361.939976 
L 451.484513 358.192338 
L 451.199175 354.4447 
L 451.17 350.697062 
L 451.389771 346.949425 
L 451.845553 343.201787 
L 452.519472 339.454149 
L 453.389602 335.706511 
L 454.430894 331.958874 
L 455.616103 328.211236 
L 456.916649 324.463598 
L 458.303424 320.71596 
L 459.747497 316.968323 
L 461.220741 313.220685 
L 462.696378 309.473047 
L 464.149439 305.725409 
L 465.557169 301.977772 
L 466.899349 298.230134 
L 468.15857 294.482496 
L 469.320437 290.734858 
L 470.373722 286.987221 
L 471.310467 283.239583 
L 472.126037 279.491945 
L 472.819129 275.744308 
L 473.391737 271.99667 
L 473.849061 268.249032 
L 474.199352 264.501394 
L 474.453673 260.753757 
L 474.625551 257.006119 
L 474.730516 253.258481 
L 474.785519 249.510843 
L 474.808233 245.763206 
L 474.816269 242.015568 
L 474.826356 238.26793 
L 474.853531 234.520292 
L 474.910414 230.772655 
L 475.006629 227.025017 
L 475.148431 223.277379 
L 475.338559 219.529741 
L 475.576361 215.782104 
L 475.858147 212.034466 
L 476.177758 208.286828 
L 476.527289 204.53919 
L 476.897886 200.791553 
L 477.280565 197.043915 
L 477.666949 193.296277 
L 478.049883 189.548639 
L 478.423869 185.801002 
L 478.785289 182.053364 
L 479.132419 178.305726 
L 479.465253 174.558088 
L 479.785155 170.810451 
L 480.094417 167.062813 
L 480.395752 163.315175 
L 480.691812 159.567538 
L 480.984753 155.8199 
L 481.275924 152.072262 
L 481.565669 148.324624 
L 481.853288 144.576987 
L 482.137118 140.829349 
L 482.414731 137.081711 
L 482.683202 133.334073 
L 482.939413 129.586436 
L 483.180361 125.838798 
L 483.40342 122.09116 
L 483.606547 118.343522 
L 483.788414 114.595885 
L 483.948457 110.848247 
L 484.086857 107.100609 
L 484.204455 103.352971 
L 484.302634 99.605334 
L 484.383169 95.857696 
L 484.916831 95.857696 
L 484.916831 95.857696 
L 484.997366 99.605334 
L 485.095545 103.352971 
L 485.213143 107.100609 
L 485.351543 110.848247 
L 485.511586 114.595885 
L 485.693453 118.343522 
L 485.89658 122.09116 
L 486.119639 125.838798 
L 486.360587 129.586436 
L 486.616798 133.334073 
L 486.885269 137.081711 
L 487.162882 140.829349 
L 487.446712 144.576987 
L 487.734331 148.324624 
L 488.024076 152.072262 
L 488.315247 155.8199 
L 488.608188 159.567538 
L 488.904248 163.315175 
L 489.205583 167.062813 
L 489.514845 170.810451 
L 489.834747 174.558088 
L 490.167581 178.305726 
L 490.514711 182.053364 
L 490.876131 185.801002 
L 491.250117 189.548639 
L 491.633051 193.296277 
L 492.019435 197.043915 
L 492.402114 200.791553 
L 492.772711 204.53919 
L 493.122242 208.286828 
L 493.441853 212.034466 
L 493.723639 215.782104 
L 493.961441 219.529741 
L 494.151569 223.277379 
L 494.293371 227.025017 
L 494.389586 230.772655 
L 494.446469 234.520292 
L 494.473644 238.26793 
L 494.483731 242.015568 
L 494.491767 245.763206 
L 494.514481 249.510843 
L 494.569484 253.258481 
L 494.674449 257.006119 
L 494.846327 260.753757 
L 495.100648 264.501394 
L 495.450939 268.249032 
L 495.908263 271.99667 
L 496.480871 275.744308 
L 497.173963 279.491945 
L 497.989533 283.239583 
L 498.926278 286.987221 
L 499.979563 290.734858 
L 501.14143 294.482496 
L 502.400651 298.230134 
L 503.742831 301.977772 
L 505.150561 305.725409 
L 506.603622 309.473047 
L 508.079259 313.220685 
L 509.552503 316.968323 
L 510.996576 320.71596 
L 512.383351 324.463598 
L 513.683897 328.211236 
L 514.869106 331.958874 
L 515.910398 335.706511 
L 516.780528 339.454149 
L 517.454447 343.201787 
L 517.910229 346.949425 
L 518.13 350.697062 
L 518.100825 354.4447 
L 517.815487 358.192338 
L 517.273085 361.939976 
L 516.479397 365.687613 
L 515.446931 369.435251 
L 514.194664 373.182889 
L 512.747431 376.930527 
L 511.135014 380.678164 
L 509.390962 384.425802 
L 507.551235 388.17344 
L 505.652748 391.921078 
L 503.731926 395.668715 
L 501.823351 399.416353 
L 499.958592 403.163991 
L 498.16527 406.911628 
L 496.466404 410.659266 
L 494.880045 414.406904 
L 493.419178 418.154542 
L 492.091885 421.902179 
L 490.901702 425.649817 
L 489.848135 429.397455 
L 488.927276 433.145093 
L 488.132471 436.89273 
L 487.454994 440.640368 
L 486.884694 444.388006 
L 486.41059 448.135644 
L 486.021388 451.883281 
L 485.705913 455.630919 
L 485.453458 459.378557 
L 485.254041 463.126195 
L 485.098576 466.873832 
L 485.098576 466.873832 
z
" clip-path="url(#p1b2c894ed3)" style="fill: none; stroke: #9467bd; stroke-width: 1.5"/>
   </g>
   <g id="FillBetweenPolyCollection_6">
    <path d="M 568.95316 470.342882 
L 567.74684 470.342882 
L 567.554329 466.580736 
L 567.311513 462.81859 
L 567.008851 459.056444 
L 566.636033 455.294298 
L 566.182216 451.532152 
L 565.636348 447.770007 
L 564.987585 444.007861 
L 564.225795 440.245715 
L 563.342148 436.483569 
L 562.329753 432.721423 
L 561.184331 428.959277 
L 559.90487 425.197131 
L 558.49423 421.434985 
L 556.959635 417.67284 
L 555.313009 413.910694 
L 553.571104 410.148548 
L 551.755392 406.386402 
L 549.891678 402.624256 
L 548.009455 398.86211 
L 546.140993 395.099964 
L 544.32022 391.337818 
L 542.581444 387.575673 
L 540.958003 383.813527 
L 539.480921 380.051381 
L 538.177664 376.289235 
L 537.071081 372.527089 
L 536.178596 368.764943 
L 535.511694 365.002797 
L 535.075723 361.240652 
L 534.87 357.478506 
L 534.888194 353.71636 
L 535.118924 349.954214 
L 535.546513 346.192068 
L 536.151824 342.429922 
L 536.913117 338.667776 
L 537.80687 334.90563 
L 538.808534 331.143485 
L 539.893187 327.381339 
L 541.036096 323.619193 
L 542.213191 319.857047 
L 543.401454 316.094901 
L 544.579257 312.332755 
L 545.72665 308.570609 
L 546.825609 304.808463 
L 547.860259 301.046318 
L 548.817044 297.284172 
L 549.684871 293.522026 
L 550.455193 289.75988 
L 551.122046 285.997734 
L 551.682033 282.235588 
L 552.134264 278.473442 
L 552.480262 274.711297 
L 552.723844 270.949151 
L 552.870989 267.187005 
L 552.929702 263.424859 
L 552.909874 259.662713 
L 552.823118 255.900567 
L 552.682596 252.138421 
L 552.502795 248.376275 
L 552.299249 244.61413 
L 552.088193 240.851984 
L 551.886147 237.089838 
L 551.709432 233.327692 
L 551.573643 229.565546 
L 551.493098 225.8034 
L 551.480309 222.041254 
L 551.545509 218.279108 
L 551.69627 214.516963 
L 551.937244 210.754817 
L 552.270053 206.992671 
L 552.693326 203.230525 
L 553.202878 199.468379 
L 553.792021 195.706233 
L 554.451964 191.944087 
L 555.172282 188.181941 
L 555.941411 184.419796 
L 556.747138 180.65765 
L 557.577057 176.895504 
L 558.418979 173.133358 
L 559.261268 169.371212 
L 560.093125 165.609066 
L 560.904787 161.84692 
L 561.687678 158.084775 
L 562.434503 154.322629 
L 563.139294 150.560483 
L 563.797422 146.798337 
L 564.405574 143.036191 
L 564.961704 139.274045 
L 565.464955 135.511899 
L 565.915566 131.749753 
L 566.314749 127.987608 
L 566.664562 124.225462 
L 566.967756 120.463316 
L 567.227624 116.70117 
L 567.447844 112.939024 
L 567.632329 109.176878 
L 567.785082 105.414732 
L 567.910073 101.652586 
L 568.011128 97.890441 
L 568.688872 97.890441 
L 568.688872 97.890441 
L 568.789927 101.652586 
L 568.914918 105.414732 
L 569.067671 109.176878 
L 569.252156 112.939024 
L 569.472376 116.70117 
L 569.732244 120.463316 
L 570.035438 124.225462 
L 570.385251 127.987608 
L 570.784434 131.749753 
L 571.235045 135.511899 
L 571.738296 139.274045 
L 572.294426 143.036191 
L 572.902578 146.798337 
L 573.560706 150.560483 
L 574.265497 154.322629 
L 575.012322 158.084775 
L 575.795213 161.84692 
L 576.606875 165.609066 
L 577.438732 169.371212 
L 578.281021 173.133358 
L 579.122943 176.895504 
L 579.952862 180.65765 
L 580.758589 184.419796 
L 581.527718 188.181941 
L 582.248036 191.944087 
L 582.907979 195.706233 
L 583.497122 199.468379 
L 584.006674 203.230525 
L 584.429947 206.992671 
L 584.762756 210.754817 
L 585.00373 214.516963 
L 585.154491 218.279108 
L 585.219691 222.041254 
L 585.206902 225.8034 
L 585.126357 229.565546 
L 584.990568 233.327692 
L 584.813853 237.089838 
L 584.611807 240.851984 
L 584.400751 244.61413 
L 584.197205 248.376275 
L 584.017404 252.138421 
L 583.876882 255.900567 
L 583.790126 259.662713 
L 583.770298 263.424859 
L 583.829011 267.187005 
L 583.976156 270.949151 
L 584.219738 274.711297 
L 584.565736 278.473442 
L 585.017967 282.235588 
L 585.577954 285.997734 
L 586.244807 289.75988 
L 587.015129 293.522026 
L 587.882956 297.284172 
L 588.839741 301.046318 
L 589.874391 304.808463 
L 590.97335 308.570609 
L 592.120743 312.332755 
L 593.298546 316.094901 
L 594.486809 319.857047 
L 595.663904 323.619193 
L 596.806813 327.381339 
L 597.891466 331.143485 
L 598.89313 334.90563 
L 599.786883 338.667776 
L 600.548176 342.429922 
L 601.153487 346.192068 
L 601.581076 349.954214 
L 601.811806 353.71636 
L 601.83 357.478506 
L 601.624277 361.240652 
L 601.188306 365.002797 
L 600.521404 368.764943 
L 599.628919 372.527089 
L 598.522336 376.289235 
L 597.219079 380.051381 
L 595.741997 383.813527 
L 594.118556 387.575673 
L 592.37978 391.337818 
L 590.559007 395.099964 
L 588.690545 398.86211 
L 586.808322 402.624256 
L 584.944608 406.386402 
L 583.128896 410.148548 
L 581.386991 413.910694 
L 579.740365 417.67284 
L 578.20577 421.434985 
L 576.79513 425.197131 
L 575.515669 428.959277 
L 574.370247 432.721423 
L 573.357852 436.483569 
L 572.474205 440.245715 
L 571.712415 444.007861 
L 571.063652 447.770007 
L 570.517784 451.532152 
L 570.063967 455.294298 
L 569.691149 459.056444 
L 569.388487 462.81859 
L 569.145671 466.580736 
L 568.95316 470.342882 
L 568.95316 470.342882 
z
" clip-path="url(#p1b2c894ed3)" style="fill: none; stroke: #8c564b; stroke-width: 1.5"/>
   </g>
   <g id="FillBetweenPolyCollection_7">
    <path d="M 652.485737 466.976192 
L 651.614263 466.976192 
L 651.457636 463.330992 
L 651.254683 459.685791 
L 650.99524 456.040591 
L 650.668014 452.39539 
L 650.260785 448.75019 
L 649.760712 445.10499 
L 649.15476 441.459789 
L 648.430247 437.814589 
L 647.575505 434.169389 
L 646.580643 430.524188 
L 645.438381 426.878988 
L 644.144909 423.233788 
L 642.700736 419.588587 
L 641.111454 415.943387 
L 639.38835 412.298187 
L 637.548816 408.652986 
L 635.616459 405.007786 
L 633.620886 401.362586 
L 631.597115 397.717385 
L 629.584592 394.072185 
L 627.625842 390.426985 
L 625.7648 386.781784 
L 624.044907 383.136584 
L 622.50708 379.491383 
L 621.187701 375.846183 
L 620.116772 372.200983 
L 619.316382 368.555782 
L 618.799613 364.910582 
L 618.57 361.265382 
L 618.621577 357.620181 
L 618.939529 353.974981 
L 619.501384 350.329781 
L 620.278645 346.68458 
L 621.238712 343.03938 
L 622.346918 339.39418 
L 623.568506 335.748979 
L 624.870382 332.103779 
L 626.222503 328.458579 
L 627.598834 324.813378 
L 628.977822 321.168178 
L 630.342423 317.522977 
L 631.679745 313.877777 
L 632.980417 310.232577 
L 634.237795 306.587376 
L 635.447132 302.942176 
L 636.604826 299.296976 
L 637.707811 295.651775 
L 638.753152 292.006575 
L 639.737852 288.361375 
L 640.658856 284.716174 
L 641.513204 281.070974 
L 642.298286 277.425774 
L 643.012131 273.780573 
L 643.653676 270.135373 
L 644.222973 266.490173 
L 644.721302 262.844972 
L 645.151176 259.199772 
L 645.51625 255.554571 
L 645.821141 251.909371 
L 646.071191 248.264171 
L 646.272199 244.61897 
L 646.430157 240.97377 
L 646.551009 237.32857 
L 646.640463 233.683369 
L 646.703856 230.038169 
L 646.746094 226.392969 
L 646.771649 222.747768 
L 646.784614 219.102568 
L 646.788807 215.457368 
L 646.787884 211.812167 
L 646.785473 208.166967 
L 646.785276 204.521767 
L 646.791139 200.876566 
L 646.807069 197.231366 
L 646.837178 193.586165 
L 646.885565 189.940965 
L 646.956129 186.295765 
L 647.052339 182.650564 
L 647.176971 179.005364 
L 647.331851 175.360164 
L 647.517639 171.714963 
L 647.733663 168.069763 
L 647.977857 164.424563 
L 648.246795 160.779362 
L 648.535835 157.134162 
L 648.839358 153.488962 
L 649.151092 149.843761 
L 649.464478 146.198561 
L 649.77305 142.553361 
L 650.070798 138.90816 
L 650.352475 135.26296 
L 650.613831 131.617759 
L 650.851751 127.972559 
L 651.064306 124.327359 
L 651.25071 120.682158 
L 651.411213 117.036958 
L 651.546928 113.391758 
L 651.65964 109.746557 
L 651.751593 106.101357 
L 652.348407 106.101357 
L 652.348407 106.101357 
L 652.44036 109.746557 
L 652.553072 113.391758 
L 652.688787 117.036958 
L 652.84929 120.682158 
L 653.035694 124.327359 
L 653.248249 127.972559 
L 653.486169 131.617759 
L 653.747525 135.26296 
L 654.029202 138.90816 
L 654.32695 142.553361 
L 654.635522 146.198561 
L 654.948908 149.843761 
L 655.260642 153.488962 
L 655.564165 157.134162 
L 655.853205 160.779362 
L 656.122143 164.424563 
L 656.366337 168.069763 
L 656.582361 171.714963 
L 656.768149 175.360164 
L 656.923029 179.005364 
L 657.047661 182.650564 
L 657.143871 186.295765 
L 657.214435 189.940965 
L 657.262822 193.586165 
L 657.292931 197.231366 
L 657.308861 200.876566 
L 657.314724 204.521767 
L 657.314527 208.166967 
L 657.312116 211.812167 
L 657.311193 215.457368 
L 657.315386 219.102568 
L 657.328351 222.747768 
L 657.353906 226.392969 
L 657.396144 230.038169 
L 657.459537 233.683369 
L 657.548991 237.32857 
L 657.669843 240.97377 
L 657.827801 244.61897 
L 658.028809 248.264171 
L 658.278859 251.909371 
L 658.58375 255.554571 
L 658.948824 259.199772 
L 659.378698 262.844972 
L 659.877027 266.490173 
L 660.446324 270.135373 
L 661.087869 273.780573 
L 661.801714 277.425774 
L 662.586796 281.070974 
L 663.441144 284.716174 
L 664.362148 288.361375 
L 665.346848 292.006575 
L 666.392189 295.651775 
L 667.495174 299.296976 
L 668.652868 302.942176 
L 669.862205 306.587376 
L 671.119583 310.232577 
L 672.420255 313.877777 
L 673.757577 317.522977 
L 675.122178 321.168178 
L 676.501166 324.813378 
L 677.877497 328.458579 
L 679.229618 332.103779 
L 680.531494 335.748979 
L 681.753082 339.39418 
L 682.861288 343.03938 
L 683.821355 346.68458 
L 684.598616 350.329781 
L 685.160471 353.974981 
L 685.478423 357.620181 
L 685.53 361.265382 
L 685.300387 364.910582 
L 684.783618 368.555782 
L 683.983228 372.200983 
L 682.912299 375.846183 
L 681.59292 379.491383 
L 680.055093 383.136584 
L 678.3352 386.781784 
L 676.474158 390.426985 
L 674.515408 394.072185 
L 672.502885 397.717385 
L 670.479114 401.362586 
L 668.483541 405.007786 
L 666.551184 408.652986 
L 664.71165 412.298187 
L 662.988546 415.943387 
L 661.399264 419.588587 
L 659.955091 423.233788 
L 658.661619 426.878988 
L 657.519357 430.524188 
L 656.524495 434.169389 
L 655.669753 437.814589 
L 654.94524 441.459789 
L 654.339288 445.10499 
L 653.839215 448.75019 
L 653.431986 452.39539 
L 653.10476 456.040591 
L 652.845317 459.685791 
L 652.642364 463.330992 
L 652.485737 466.976192 
L 652.485737 466.976192 
z
" clip-path="url(#p1b2c894ed3)" style="fill: none; stroke: #e377c2; stroke-width: 1.5"/>
   </g>
   <g id="FillBetweenPolyCollection_8">
    <path d="M 736.3054 475.423441 
L 735.1946 475.423441 
L 735.00594 471.523003 
L 734.765458 467.622564 
L 734.46303 463.722125 
L 734.087747 459.821686 
L 733.628185 455.921247 
L 733.072757 452.020809 
L 732.410159 448.12037 
L 731.6299 444.219931 
L 730.722893 440.319492 
L 729.682108 436.419053 
L 728.503235 432.518615 
L 727.185349 428.618176 
L 725.731523 424.717737 
L 724.149351 420.817298 
L 722.451338 416.916859 
L 720.6551 413.016421 
L 718.783345 409.115982 
L 716.863583 405.215543 
L 714.927547 401.315104 
L 713.010324 397.414665 
L 711.1492 393.514227 
L 709.382276 389.613788 
L 707.746915 385.713349 
L 706.27811 381.81291 
L 705.006901 377.912471 
L 703.958943 374.012033 
L 703.153341 370.111594 
L 702.601865 366.211155 
L 702.308589 362.310716 
L 702.27 358.410277 
L 702.47555 354.509839 
L 702.908596 350.6094 
L 703.547628 346.708961 
L 704.367669 342.808522 
L 705.341708 338.908083 
L 706.442044 335.007645 
L 707.641439 331.107206 
L 708.913993 327.206767 
L 710.235731 323.306328 
L 711.584885 319.405889 
L 712.94193 315.505451 
L 714.289424 311.605012 
L 715.611759 307.704573 
L 716.894878 303.804134 
L 718.126049 299.903695 
L 719.293743 296.003257 
L 720.387639 292.102818 
L 721.398756 288.202379 
L 722.319693 284.30194 
L 723.14493 280.401501 
L 723.871137 276.501063 
L 724.497432 272.600624 
L 725.025556 268.700185 
L 725.459898 264.799746 
L 725.807382 260.899307 
L 726.077185 256.998869 
L 726.280319 253.09843 
L 726.42909 249.197991 
L 726.536485 245.297552 
L 726.615532 241.397113 
L 726.678671 237.496674 
L 726.737195 233.596236 
L 726.800794 229.695797 
L 726.877236 225.795358 
L 726.972203 221.894919 
L 727.089286 217.99448 
L 727.230139 214.094042 
L 727.39476 210.193603 
L 727.581869 206.293164 
L 727.789347 202.392725 
L 728.014678 198.492286 
L 728.255359 194.591848 
L 728.509218 190.691409 
L 728.774639 186.79097 
L 729.050644 182.890531 
L 729.336863 178.990092 
L 729.633376 175.089654 
L 729.940488 171.189215 
L 730.258447 167.288776 
L 730.58717 163.388337 
L 730.925995 159.487898 
L 731.273521 155.58746 
L 731.62752 151.687021 
L 731.984969 147.786582 
L 732.342164 143.886143 
L 732.694925 139.985704 
L 733.038842 136.085266 
L 733.369554 132.184827 
L 733.68302 128.284388 
L 733.975747 124.383949 
L 734.244979 120.48351 
L 734.488803 116.583072 
L 734.706199 112.682633 
L 734.897013 108.782194 
L 735.06188 104.881755 
L 735.202101 100.981316 
L 735.319494 97.080878 
L 735.416241 93.180439 
L 735.494729 89.28 
L 736.005271 89.28 
L 736.005271 89.28 
L 736.083759 93.180439 
L 736.180506 97.080878 
L 736.297899 100.981316 
L 736.43812 104.881755 
L 736.602987 108.782194 
L 736.793801 112.682633 
L 737.011197 116.583072 
L 737.255021 120.48351 
L 737.524253 124.383949 
L 737.81698 128.284388 
L 738.130446 132.184827 
L 738.461158 136.085266 
L 738.805075 139.985704 
L 739.157836 143.886143 
L 739.515031 147.786582 
L 739.87248 151.687021 
L 740.226479 155.58746 
L 740.574005 159.487898 
L 740.91283 163.388337 
L 741.241553 167.288776 
L 741.559512 171.189215 
L 741.866624 175.089654 
L 742.163137 178.990092 
L 742.449356 182.890531 
L 742.725361 186.79097 
L 742.990782 190.691409 
L 743.244641 194.591848 
L 743.485322 198.492286 
L 743.710653 202.392725 
L 743.918131 206.293164 
L 744.10524 210.193603 
L 744.269861 214.094042 
L 744.410714 217.99448 
L 744.527797 221.894919 
L 744.622764 225.795358 
L 744.699206 229.695797 
L 744.762805 233.596236 
L 744.821329 237.496674 
L 744.884468 241.397113 
L 744.963515 245.297552 
L 745.07091 249.197991 
L 745.219681 253.09843 
L 745.422815 256.998869 
L 745.692618 260.899307 
L 746.040102 264.799746 
L 746.474444 268.700185 
L 747.002568 272.600624 
L 747.628863 276.501063 
L 748.35507 280.401501 
L 749.180307 284.30194 
L 750.101244 288.202379 
L 751.112361 292.102818 
L 752.206257 296.003257 
L 753.373951 299.903695 
L 754.605122 303.804134 
L 755.888241 307.704573 
L 757.210576 311.605012 
L 758.55807 315.505451 
L 759.915115 319.405889 
L 761.264269 323.306328 
L 762.586007 327.206767 
L 763.858561 331.107206 
L 765.057956 335.007645 
L 766.158292 338.908083 
L 767.132331 342.808522 
L 767.952372 346.708961 
L 768.591404 350.6094 
L 769.02445 354.509839 
L 769.23 358.410277 
L 769.191411 362.310716 
L 768.898135 366.211155 
L 768.346659 370.111594 
L 767.541057 374.012033 
L 766.493099 377.912471 
L 765.22189 381.81291 
L 763.753085 385.713349 
L 762.117724 389.613788 
L 760.3508 393.514227 
L 758.489676 397.414665 
L 756.572453 401.315104 
L 754.636417 405.215543 
L 752.716655 409.115982 
L 750.8449 413.016421 
L 749.048662 416.916859 
L 747.350649 420.817298 
L 745.768477 424.717737 
L 744.314651 428.618176 
L 742.996765 432.518615 
L 741.817892 436.419053 
L 740.777107 440.319492 
L 739.8701 444.219931 
L 739.089841 448.12037 
L 738.427243 452.020809 
L 737.871815 455.921247 
L 737.412253 459.821686 
L 737.03697 463.722125 
L 736.734542 467.622564 
L 736.49406 471.523003 
L 736.3054 475.423441 
L 736.3054 475.423441 
z
" clip-path="url(#p1b2c894ed3)" style="fill: none; stroke: #7f7f7f; stroke-width: 1.5"/>
   </g>
   <g id="patch_3">
    <path d="M 141.48 329.219034 
L 158.22 329.219034 
L 158.22 312.377919 
L 154.035 289.335737 
L 158.22 266.293555 
L 158.22 229.677835 
L 141.48 229.677835 
L 141.48 266.293555 
L 145.665 289.335737 
L 141.48 312.377919 
L 141.48 329.219034 
z
" clip-path="url(#p1b2c894ed3)" style="fill: #3274a1; stroke: #3d3d3d; stroke-linejoin: miter"/>
   </g>
   <g id="line2d_31">
    <path d="M 149.85 329.219034 
L 149.85 375.988084 
" clip-path="url(#p1b2c894ed3)" style="fill: none; stroke: #3d3d3d"/>
   </g>
   <g id="line2d_32">
    <path d="M 149.85 229.677835 
L 149.85 160.801549 
" clip-path="url(#p1b2c894ed3)" style="fill: none; stroke: #3d3d3d"/>
   </g>
   <g id="line2d_33">
    <path d="M 145.665 375.988084 
L 154.035 375.988084 
" clip-path="url(#p1b2c894ed3)" style="fill: none; stroke: #3d3d3d; stroke-linecap: round"/>
   </g>
   <g id="line2d_34">
    <path d="M 145.665 160.801549 
L 154.035 160.801549 
" clip-path="url(#p1b2c894ed3)" style="fill: none; stroke: #3d3d3d; stroke-linecap: round"/>
   </g>
   <g id="line2d_35"/>
   <g id="patch_4">
    <path d="M 225.18 359.139901 
L 241.92 359.139901 
L 241.92 350.797323 
L 237.735 331.166441 
L 241.92 311.535559 
L 241.92 274.335368 
L 225.18 274.335368 
L 225.18 311.535559 
L 229.365 331.166441 
L 225.18 350.797323 
L 225.18 359.139901 
z
" clip-path="url(#p1b2c894ed3)" style="fill: #e1812c; stroke: #3d3d3d; stroke-linejoin: miter"/>
   </g>
   <g id="line2d_36">
    <path d="M 233.55 359.139901 
L 233.55 433.446973 
" clip-path="url(#p1b2c894ed3)" style="fill: none; stroke: #3d3d3d"/>
   </g>
   <g id="line2d_37">
    <path d="M 233.55 274.335368 
L 233.55 162.440691 
" clip-path="url(#p1b2c894ed3)" style="fill: none; stroke: #3d3d3d"/>
   </g>
   <g id="line2d_38">
    <path d="M 229.365 433.446973 
L 237.735 433.446973 
" clip-path="url(#p1b2c894ed3)" style="fill: none; stroke: #3d3d3d; stroke-linecap: round"/>
   </g>
   <g id="line2d_39">
    <path d="M 229.365 162.440691 
L 237.735 162.440691 
" clip-path="url(#p1b2c894ed3)" style="fill: none; stroke: #3d3d3d; stroke-linecap: round"/>
   </g>
   <g id="line2d_40"/>
   <g id="patch_5">
    <path d="M 308.88 372.230479 
L 325.62 372.230479 
L 325.62 349.132222 
L 321.435 328.479803 
L 325.62 307.827383 
L 325.62 283.012947 
L 308.88 283.012947 
L 308.88 307.827383 
L 313.065 328.479803 
L 308.88 349.132222 
L 308.88 372.230479 
z
" clip-path="url(#p1b2c894ed3)" style="fill: #3a923a; stroke: #3d3d3d; stroke-linejoin: miter"/>
   </g>
   <g id="line2d_41">
    <path d="M 317.25 372.230479 
L 317.25 404.005126 
" clip-path="url(#p1b2c894ed3)" style="fill: none; stroke: #3d3d3d"/>
   </g>
   <g id="line2d_42">
    <path d="M 317.25 283.012947 
L 317.25 159.367422 
" clip-path="url(#p1b2c894ed3)" style="fill: none; stroke: #3d3d3d"/>
   </g>
   <g id="line2d_43">
    <path d="M 313.065 404.005126 
L 321.435 404.005126 
" clip-path="url(#p1b2c894ed3)" style="fill: none; stroke: #3d3d3d; stroke-linecap: round"/>
   </g>
   <g id="line2d_44">
    <path d="M 313.065 159.367422 
L 321.435 159.367422 
" clip-path="url(#p1b2c894ed3)" style="fill: none; stroke: #3d3d3d; stroke-linecap: round"/>
   </g>
   <g id="line2d_45"/>
   <g id="patch_6">
    <path d="M 392.58 376.814151 
L 409.32 376.814151 
L 409.32 373.370719 
L 405.135 358.605737 
L 409.32 343.840754 
L 409.32 313.030085 
L 392.58 313.030085 
L 392.58 343.840754 
L 396.765 358.605737 
L 392.58 373.370719 
L 392.58 376.814151 
z
" clip-path="url(#p1b2c894ed3)" style="fill: #c03d3e; stroke: #3d3d3d; stroke-linejoin: miter"/>
   </g>
   <g id="line2d_46">
    <path d="M 400.95 376.814151 
L 400.95 401.616362 
" clip-path="url(#p1b2c894ed3)" style="fill: none; stroke: #3d3d3d"/>
   </g>
   <g id="line2d_47">
    <path d="M 400.95 313.030085 
L 400.95 226.634159 
" clip-path="url(#p1b2c894ed3)" style="fill: none; stroke: #3d3d3d"/>
   </g>
   <g id="line2d_48">
    <path d="M 396.765 401.616362 
L 405.135 401.616362 
" clip-path="url(#p1b2c894ed3)" style="fill: none; stroke: #3d3d3d; stroke-linecap: round"/>
   </g>
   <g id="line2d_49">
    <path d="M 396.765 226.634159 
L 405.135 226.634159 
" clip-path="url(#p1b2c894ed3)" style="fill: none; stroke: #3d3d3d; stroke-linecap: round"/>
   </g>
   <g id="line2d_50">
    <defs>
     <path id="m5d511183ff" d="M 0 3 
C 0.795609 3 1.55874 2.683901 2.12132 2.12132 
C 2.683901 1.55874 3 0.795609 3 0 
C 3 -0.795609 2.683901 -1.55874 2.12132 -2.12132 
C 1.55874 -2.683901 0.795609 -3 0 -3 
C -0.795609 -3 -1.55874 -2.683901 -2.12132 -2.12132 
C -2.683901 -1.55874 -3 -0.795609 -3 0 
C -3 0.795609 -2.683901 1.55874 -2.12132 2.12132 
C -1.55874 2.683901 -0.795609 3 0 3 
z
" style="stroke: #3d3d3d"/>
    </defs>
    <g clip-path="url(#p1b2c894ed3)">
     <use xlink:href="#m5d511183ff" x="400.95" y="214.418905" style="fill-opacity: 0; stroke: #3d3d3d"/>
    </g>
   </g>
   <g id="patch_7">
    <path d="M 476.28 364.158606 
L 493.02 364.158606 
L 493.02 357.690079 
L 488.835 339.776084 
L 493.02 321.862088 
L 493.02 286.770944 
L 476.28 286.770944 
L 476.28 321.862088 
L 480.465 339.776084 
L 476.28 357.690079 
L 476.28 364.158606 
z
" clip-path="url(#p1b2c894ed3)" style="fill: #9372b2; stroke: #3d3d3d; stroke-linejoin: miter"/>
   </g>
   <g id="line2d_51">
    <path d="M 484.65 364.158606 
L 484.65 407.747483 
" clip-path="url(#p1b2c894ed3)" style="fill: none; stroke: #3d3d3d"/>
   </g>
   <g id="line2d_52">
    <path d="M 484.65 286.770944 
L 484.65 200.000789 
" clip-path="url(#p1b2c894ed3)" style="fill: none; stroke: #3d3d3d"/>
   </g>
   <g id="line2d_53">
    <path d="M 480.465 407.747483 
L 488.835 407.747483 
" clip-path="url(#p1b2c894ed3)" style="fill: none; stroke: #3d3d3d; stroke-linecap: round"/>
   </g>
   <g id="line2d_54">
    <path d="M 480.465 200.000789 
L 488.835 200.000789 
" clip-path="url(#p1b2c894ed3)" style="fill: none; stroke: #3d3d3d; stroke-linecap: round"/>
   </g>
   <g id="line2d_55">
    <g clip-path="url(#p1b2c894ed3)">
     <use xlink:href="#m5d511183ff" x="484.65" y="154.984046" style="fill-opacity: 0; stroke: #3d3d3d"/>
     <use xlink:href="#m5d511183ff" x="484.65" y="165.92399" style="fill-opacity: 0; stroke: #3d3d3d"/>
    </g>
   </g>
   <g id="patch_8">
    <path d="M 559.98 367.785943 
L 576.72 367.785943 
L 576.72 357.250042 
L 572.535 328.915755 
L 576.72 300.581467 
L 576.72 245.383084 
L 559.98 245.383084 
L 559.98 300.581467 
L 564.165 328.915755 
L 559.98 357.250042 
L 559.98 367.785943 
z
" clip-path="url(#p1b2c894ed3)" style="fill: #845b53; stroke: #3d3d3d; stroke-linejoin: miter"/>
   </g>
   <g id="line2d_56">
    <path d="M 568.35 367.785943 
L 568.35 405.455858 
" clip-path="url(#p1b2c894ed3)" style="fill: none; stroke: #3d3d3d"/>
   </g>
   <g id="line2d_57">
    <path d="M 568.35 245.383084 
L 568.35 162.777465 
" clip-path="url(#p1b2c894ed3)" style="fill: none; stroke: #3d3d3d"/>
   </g>
   <g id="line2d_58">
    <path d="M 564.165 405.455858 
L 572.535 405.455858 
" clip-path="url(#p1b2c894ed3)" style="fill: none; stroke: #3d3d3d; stroke-linecap: round"/>
   </g>
   <g id="line2d_59">
    <path d="M 564.165 162.777465 
L 572.535 162.777465 
" clip-path="url(#p1b2c894ed3)" style="fill: none; stroke: #3d3d3d; stroke-linecap: round"/>
   </g>
   <g id="line2d_60"/>
   <g id="patch_9">
    <path d="M 643.68 370.861372 
L 660.42 370.861372 
L 660.42 365.199399 
L 656.235 350.334418 
L 660.42 335.469437 
L 660.42 306.645317 
L 643.68 306.645317 
L 643.68 335.469437 
L 647.865 350.334418 
L 643.68 365.199399 
L 643.68 370.861372 
z
" clip-path="url(#p1b2c894ed3)" style="fill: #d684bd; stroke: #3d3d3d; stroke-linejoin: miter"/>
   </g>
   <g id="line2d_61">
    <path d="M 652.05 370.861372 
L 652.05 409.771727 
" clip-path="url(#p1b2c894ed3)" style="fill: none; stroke: #3d3d3d"/>
   </g>
   <g id="line2d_62">
    <path d="M 652.05 306.645317 
L 652.05 221.740222 
" clip-path="url(#p1b2c894ed3)" style="fill: none; stroke: #3d3d3d"/>
   </g>
   <g id="line2d_63">
    <path d="M 647.865 409.771727 
L 656.235 409.771727 
" clip-path="url(#p1b2c894ed3)" style="fill: none; stroke: #3d3d3d; stroke-linecap: round"/>
   </g>
   <g id="line2d_64">
    <path d="M 647.865 221.740222 
L 656.235 221.740222 
" clip-path="url(#p1b2c894ed3)" style="fill: none; stroke: #3d3d3d; stroke-linecap: round"/>
   </g>
   <g id="line2d_65">
    <g clip-path="url(#p1b2c894ed3)">
     <use xlink:href="#m5d511183ff" x="652.05" y="163.305822" style="fill-opacity: 0; stroke: #3d3d3d"/>
     <use xlink:href="#m5d511183ff" x="652.05" y="206.700674" style="fill-opacity: 0; stroke: #3d3d3d"/>
     <use xlink:href="#m5d511183ff" x="652.05" y="186.529436" style="fill-opacity: 0; stroke: #3d3d3d"/>
     <use xlink:href="#m5d511183ff" x="652.05" y="170.540128" style="fill-opacity: 0; stroke: #3d3d3d"/>
    </g>
   </g>
   <g id="patch_10">
    <path d="M 727.38 372.350215 
L 744.12 372.350215 
L 744.12 363.396538 
L 739.935 346.817075 
L 744.12 330.237613 
L 744.12 300.727677 
L 727.38 300.727677 
L 727.38 330.237613 
L 731.565 346.817075 
L 727.38 363.396538 
L 727.38 372.350215 
z
" clip-path="url(#p1b2c894ed3)" style="fill: #7f7f7f; stroke: #3d3d3d; stroke-linejoin: miter"/>
   </g>
   <g id="line2d_66">
    <path d="M 735.75 372.350215 
L 735.75 412.749217 
" clip-path="url(#p1b2c894ed3)" style="fill: none; stroke: #3d3d3d"/>
   </g>
   <g id="line2d_67">
    <path d="M 735.75 300.727677 
L 735.75 211.298773 
" clip-path="url(#p1b2c894ed3)" style="fill: none; stroke: #3d3d3d"/>
   </g>
   <g id="line2d_68">
    <path d="M 731.565 412.749217 
L 739.935 412.749217 
" clip-path="url(#p1b2c894ed3)" style="fill: none; stroke: #3d3d3d; stroke-linecap: round"/>
   </g>
   <g id="line2d_69">
    <path d="M 731.565 211.298773 
L 739.935 211.298773 
" clip-path="url(#p1b2c894ed3)" style="fill: none; stroke: #3d3d3d; stroke-linecap: round"/>
   </g>
   <g id="line2d_70">
    <g clip-path="url(#p1b2c894ed3)">
     <use xlink:href="#m5d511183ff" x="735.75" y="173.139059" style="fill-opacity: 0; stroke: #3d3d3d"/>
     <use xlink:href="#m5d511183ff" x="735.75" y="151.954224" style="fill-opacity: 0; stroke: #3d3d3d"/>
     <use xlink:href="#m5d511183ff" x="735.75" y="173.778551" style="fill-opacity: 0; stroke: #3d3d3d"/>
    </g>
   </g>
   <g id="line2d_71">
    <path d="M 149.85 289.335737 
L 233.55 331.166441 
L 317.25 328.479803 
L 400.95 358.605737 
L 484.65 339.776084 
L 568.35 328.915755 
L 652.05 350.334418 
L 735.75 346.817075 
" clip-path="url(#p1b2c894ed3)" style="fill: none; stroke: #1f77b4; stroke-width: 2.7; stroke-linecap: round"/>
    <defs>
     <path id="m2623992521" d="M 0 3.383948 
C 0.897434 3.383948 1.758231 3.027394 2.392813 2.392813 
C 3.027394 1.758231 3.383948 0.897434 3.383948 0 
C 3.383948 -0.897434 3.027394 -1.758231 2.392813 -2.392813 
C 1.758231 -3.027394 0.897434 -3.383948 0 -3.383948 
C -0.897434 -3.383948 -1.758231 -3.027394 -2.392813 -2.392813 
C -3.027394 -1.758231 -3.383948 -0.897434 -3.383948 0 
C -3.383948 0.897434 -3.027394 1.758231 -2.392813 2.392813 
C -1.758231 3.027394 -0.897434 3.383948 0 3.383948 
z
" style="stroke: #1f77b4; stroke-width: 2.025"/>
    </defs>
    <g clip-path="url(#p1b2c894ed3)">
     <use xlink:href="#m2623992521" x="149.85" y="289.335737" style="fill: #1f77b4; stroke: #1f77b4; stroke-width: 2.025"/>
     <use xlink:href="#m2623992521" x="233.55" y="331.166441" style="fill: #1f77b4; stroke: #1f77b4; stroke-width: 2.025"/>
     <use xlink:href="#m2623992521" x="317.25" y="328.479803" style="fill: #1f77b4; stroke: #1f77b4; stroke-width: 2.025"/>
     <use xlink:href="#m2623992521" x="400.95" y="358.605737" style="fill: #1f77b4; stroke: #1f77b4; stroke-width: 2.025"/>
     <use xlink:href="#m2623992521" x="484.65" y="339.776084" style="fill: #1f77b4; stroke: #1f77b4; stroke-width: 2.025"/>
     <use xlink:href="#m2623992521" x="568.35" y="328.915755" style="fill: #1f77b4; stroke: #1f77b4; stroke-width: 2.025"/>
     <use xlink:href="#m2623992521" x="652.05" y="350.334418" style="fill: #1f77b4; stroke: #1f77b4; stroke-width: 2.025"/>
     <use xlink:href="#m2623992521" x="735.75" y="346.817075" style="fill: #1f77b4; stroke: #1f77b4; stroke-width: 2.025"/>
    </g>
   </g>
   <g id="line2d_72">
    <path d="M 145.665 289.335737 
L 154.035 289.335737 
" clip-path="url(#p1b2c894ed3)" style="fill: none; stroke: #3d3d3d"/>
   </g>
   <g id="line2d_73">
    <path d="M 229.365 331.166441 
L 237.735 331.166441 
" clip-path="url(#p1b2c894ed3)" style="fill: none; stroke: #3d3d3d"/>
   </g>
   <g id="line2d_74">
    <path d="M 313.065 328.479803 
L 321.435 328.479803 
" clip-path="url(#p1b2c894ed3)" style="fill: none; stroke: #3d3d3d"/>
   </g>
   <g id="line2d_75">
    <path d="M 396.765 358.605737 
L 405.135 358.605737 
" clip-path="url(#p1b2c894ed3)" style="fill: none; stroke: #3d3d3d"/>
   </g>
   <g id="line2d_76">
    <path d="M 480.465 339.776084 
L 488.835 339.776084 
" clip-path="url(#p1b2c894ed3)" style="fill: none; stroke: #3d3d3d"/>
   </g>
   <g id="line2d_77">
    <path d="M 564.165 328.915755 
L 572.535 328.915755 
" clip-path="url(#p1b2c894ed3)" style="fill: none; stroke: #3d3d3d"/>
   </g>
   <g id="line2d_78">
    <path d="M 647.865 350.334418 
L 656.235 350.334418 
" clip-path="url(#p1b2c894ed3)" style="fill: none; stroke: #3d3d3d"/>
   </g>
   <g id="line2d_79">
    <path d="M 731.565 346.817075 
L 739.935 346.817075 
" clip-path="url(#p1b2c894ed3)" style="fill: none; stroke: #3d3d3d"/>
   </g>
   <g id="patch_11">
    <path d="M 108 512.64 
L 108 69.12 
" style="fill: none; stroke: #262626; stroke-width: 0.8; stroke-linejoin: miter; stroke-linecap: square"/>
   </g>
   <g id="patch_12">
    <path d="M 777.6 512.64 
L 777.6 69.12 
" style="fill: none; stroke: #262626; stroke-width: 0.8; stroke-linejoin: miter; stroke-linecap: square"/>
   </g>
   <g id="patch_13">
    <path d="M 108 512.64 
L 777.6 512.64 
" style="fill: none; stroke: #262626; stroke-width: 0.8; stroke-linejoin: miter; stroke-linecap: square"/>
   </g>
   <g id="patch_14">
    <path d="M 108 69.12 
L 777.6 69.12 
" style="fill: none; stroke: #262626; stroke-width: 0.8; stroke-linejoin: miter; stroke-linecap: square"/>
   </g>
   <g id="text_18">
    <!-- Variation of latencies across various Ragas -->
    <g style="fill: #262626" transform="translate(185.95125 63.12) scale(0.24 -0.24)">
     <defs>
      <path id="DejaVuSans-56" d="M 1831 0 
L 50 4666 
L 709 4666 
L 2188 738 
L 3669 4666 
L 4325 4666 
L 2547 0 
L 1831 0 
z
" transform="scale(0.015625)"/>
      <path id="DejaVuSans-69" d="M 603 3500 
L 1178 3500 
L 1178 0 
L 603 0 
L 603 3500 
z
M 603 4863 
L 1178 4863 
L 1178 4134 
L 603 4134 
L 603 4863 
z
" transform="scale(0.015625)"/>
      <path id="DejaVuSans-75" d="M 544 1381 
L 544 3500 
L 1119 3500 
L 1119 1403 
Q 1119 906 1312 657 
Q 1506 409 1894 409 
Q 2359 409 2629 706 
Q 2900 1003 2900 1516 
L 2900 3500 
L 3475 3500 
L 3475 0 
L 2900 0 
L 2900 538 
Q 2691 219 2414 64 
Q 2138 -91 1772 -91 
Q 1169 -91 856 284 
Q 544 659 544 1381 
z
M 1991 3584 
L 1991 3584 
z
" transform="scale(0.015625)"/>
     </defs>
     <use xlink:href="#DejaVuSans-56"/>
     <use xlink:href="#DejaVuSans-61" transform="translate(60.658203 0)"/>
     <use xlink:href="#DejaVuSans-72" transform="translate(121.9375 0)"/>
     <use xlink:href="#DejaVuSans-69" transform="translate(163.050781 0)"/>
     <use xlink:href="#DejaVuSans-61" transform="translate(190.833984 0)"/>
     <use xlink:href="#DejaVuSans-74" transform="translate(252.113281 0)"/>
     <use xlink:href="#DejaVuSans-69" transform="translate(291.322266 0)"/>
     <use xlink:href="#DejaVuSans-6f" transform="translate(319.105469 0)"/>
     <use xlink:href="#DejaVuSans-6e" transform="translate(380.287109 0)"/>
     <use xlink:href="#DejaVuSans-20" transform="translate(443.666016 0)"/>
     <use xlink:href="#DejaVuSans-6f" transform="translate(475.453125 0)"/>
     <use xlink:href="#DejaVuSans-66" transform="translate(536.634766 0)"/>
     <use xlink:href="#DejaVuSans-20" transform="translate(571.839844 0)"/>
     <use xlink:href="#DejaVuSans-6c" transform="translate(603.626953 0)"/>
     <use xlink:href="#DejaVuSans-61" transform="translate(631.410156 0)"/>
     <use xlink:href="#DejaVuSans-74" transform="translate(692.689453 0)"/>
     <use xlink:href="#DejaVuSans-65" transform="translate(731.898438 0)"/>
     <use xlink:href="#DejaVuSans-6e" transform="translate(793.421875 0)"/>
     <use xlink:href="#DejaVuSans-63" transform="translate(856.800781 0)"/>
     <use xlink:href="#DejaVuSans-69" transform="translate(911.78125 0)"/>
     <use xlink:href="#DejaVuSans-65" transform="translate(939.564453 0)"/>
     <use xlink:href="#DejaVuSans-73" transform="translate(1001.087891 0)"/>
     <use xlink:href="#DejaVuSans-20" transform="translate(1053.1875 0)"/>
     <use xlink:href="#DejaVuSans-61" transform="translate(1084.974609 0)"/>
     <use xlink:href="#DejaVuSans-63" transform="translate(1146.253906 0)"/>
     <use xlink:href="#DejaVuSans-72" transform="translate(1201.234375 0)"/>
     <use xlink:href="#DejaVuSans-6f" transform="translate(1240.097656 0)"/>
     <use xlink:href="#DejaVuSans-73" transform="translate(1301.279297 0)"/>
     <use xlink:href="#DejaVuSans-73" transform="translate(1353.378906 0)"/>
     <use xlink:href="#DejaVuSans-20" transform="translate(1405.478516 0)"/>
     <use xlink:href="#DejaVuSans-76" transform="translate(1437.265625 0)"/>
     <use xlink:href="#DejaVuSans-61" transform="translate(1496.445312 0)"/>
     <use xlink:href="#DejaVuSans-72" transform="translate(1557.724609 0)"/>
     <use xlink:href="#DejaVuSans-69" transform="translate(1598.837891 0)"/>
     <use xlink:href="#DejaVuSans-6f" transform="translate(1626.621094 0)"/>
     <use xlink:href="#DejaVuSans-75" transform="translate(1687.802734 0)"/>
     <use xlink:href="#DejaVuSans-73" transform="translate(1751.181641 0)"/>
     <use xlink:href="#DejaVuSans-20" transform="translate(1803.28125 0)"/>
     <use xlink:href="#DejaVuSans-52" transform="translate(1835.068359 0)"/>
     <use xlink:href="#DejaVuSans-61" transform="translate(1902.300781 0)"/>
     <use xlink:href="#DejaVuSans-67" transform="translate(1963.580078 0)"/>
     <use xlink:href="#DejaVuSans-61" transform="translate(2027.056641 0)"/>
     <use xlink:href="#DejaVuSans-73" transform="translate(2088.335938 0)"/>
    </g>
   </g>
  </g>
 </g>
 <defs>
  <clipPath id="p1b2c894ed3">
   <rect x="108" y="69.12" width="669.6" height="443.52"/>
  </clipPath>
 </defs>
</svg>
